<?xml version="1.0" encoding="UTF-8"?><svg id="a" xmlns="http://www.w3.org/2000/svg" xmlns:xlink="http://www.w3.org/1999/xlink" viewBox="0 0 64.34 66.85"><defs><style>.h{fill:#9c4dad;}.i{clip-path:url(#c);}.j{fill:none;}</style><clipPath id="c"><rect class="j" x="6.74" y="7.64" width="50.71" height="51.57"/></clipPath></defs><g id="b" transform="translate(0 0)"><g class="i"><g id="d" transform="translate(0 0)"><path id="e" class="h" d="M28.86,51.89c-12.22,0-22.12-9.91-22.12-22.13,0-12.22,9.91-22.12,22.13-22.12,12.22,0,22.12,9.91,22.12,22.13-.01,12.21-9.92,22.11-22.13,22.12m0-39.81c-9.77,0-17.69,7.92-17.69,17.69s7.92,17.69,17.69,17.69,17.69-7.92,17.69-17.69h0c-.01-9.76-7.93-17.68-17.69-17.69"/><path id="f" class="h" d="M16.42,29.76h-2.23c.01-8.1,6.58-14.66,14.68-14.67v2.22c-6.87,0-12.44,5.57-12.45,12.44"/><path id="g" class="h" d="M55.23,59.21c-.59,0-1.15-.23-1.57-.65l-12.36-12.36c-.88-.86-.9-2.26-.04-3.14,.86-.88,2.26-.9,3.14-.04,.02,.02,.03,.03,.05,.05l12.35,12.35c.87,.87,.87,2.27,0,3.14-.42,.42-.98,.65-1.57,.65"/></g></g></g></svg>