<?xml version="1.0" encoding="UTF-8"?><svg id="a" xmlns="http://www.w3.org/2000/svg" viewBox="0 0 62.3 61.53"><defs><style>.b{fill:#fff;fill-rule:evenodd;}.c{fill:#009a74;}</style></defs><circle class="c" cx="30.98" cy="30.72" r="28.65"/><path class="b" d="M41.88,15.9H20.14c-2.59,0-3.92,1.38-3.92,3.95v21.7c0,2.5,1.38,3.86,3.8,3.86h21.86c2.52,0,3.91-1.36,3.91-3.89V19.76c0-2.48-1.39-3.86-3.91-3.86Zm-2.4,3.35q2.93,0,2.93,2.93t-2.88,2.85-2.9-2.9,2.85-2.88Zm-8.46,5.67c3.08,0,5.73,2.66,5.68,5.73-.02,3.16-2.65,5.76-5.78,5.71-3.11-.05-5.73-2.69-5.66-5.76,.08-3.11,2.67-5.68,5.76-5.68Zm11.39,15.39c-.02,1.38-.38,1.76-1.76,1.76H21.34c-1.35,0-1.73-.38-1.73-1.76,0-3.57,.01-7.18-.05-10.78,0-1.02,.28-1.24,1.22-1.21,1.35,.11,1.38,.05,1.22,1.38-.52,4.55,2.64,8.99,7.13,9.87,4.64,.88,9.28-1.9,10.55-6.34,.38-1.39,.5-2.88,.2-4.24-.1-.52,.02-.61,.48-.61,2.04-.17,2.04-.19,2.04,1.92v10.01Z"/></svg>