<?xml version="1.0" encoding="UTF-8"?><svg id="a" xmlns="http://www.w3.org/2000/svg" viewBox="0 0 62.3 61.53"><defs><style>.b{fill:#fff;}.c{fill:#009a74;}</style></defs><circle class="c" cx="30.98" cy="30.72" r="28.65"/><path class="b" d="M43.78,46.01H18.52s-.09-.05-.13-.05c-.73-.15-1.32-.51-1.79-1.08-.37-.43-.54-.95-.69-1.49V18.14s.04-.07,.05-.1c.32-1.53,1.53-2.52,3.09-2.52,8.07,0,16.14,0,24.21,0,.27,0,.56,.03,.82,.09,1.4,.35,2.32,1.57,2.32,3.07,0,8.05,0,16.09,0,24.14,0,.09,0,.18,0,.27-.05,.85-.41,1.56-1.04,2.13-.45,.41-1,.62-1.58,.77Zm-1.97-4.59c0-.08,.01-.14,.01-.2,0-2.84,0-5.68,0-8.51,0-.65-.11-1.29-.37-1.88-.85-1.95-2.32-3.13-4.44-3.37-1.68-.19-3.02,.53-4.11,1.79-.06,.07-.11,.14-.17,.21l-.07-.03v-1.67h-4.54v13.67h4.55v-.36c0-2.47,0-4.94,0-7.41,0-.19,0-.38,.02-.56,.12-1.32,1.59-2.3,2.86-1.91,1.06,.33,1.68,1.19,1.68,2.35,0,2.51,0,5.02,0,7.53,0,.12,0,.23,0,.36h4.56Zm-21.3-13.68v13.68h4.53v-13.68h-4.53Zm5-5.34c0-1.51-1.22-2.75-2.73-2.75-1.5,0-2.75,1.25-2.75,2.75,0,1.5,1.22,2.72,2.73,2.73,1.52,.01,2.75-1.2,2.76-2.72Z"/></svg>