<?xml version="1.0" encoding="UTF-8"?><svg id="a" xmlns="http://www.w3.org/2000/svg" xmlns:xlink="http://www.w3.org/1999/xlink" viewBox="0 0 136.32 234.19"><defs><style>.ww{clip-path:url(#tb);}.wx{clip-path:url(#bh);}.wy{clip-path:url(#di);}.x`{clip-path:url(#sq);}.xa{clip-path:url(#f`);}.xb{clip-path:url(#fm);}.xc{clip-path:url(#bm);}.xd{clip-path:url(#mu);}.xe{clip-path:url(#wq);}.xf{clip-path:url(#jx);}.xg{clip-path:url(#dt);}.xh{clip-path:url(#ir);}.xi{fill:#fff;}.xj{clip-path:url(#n`);}.xk{clip-path:url(#dq);}.xl{clip-path:url(#ov);}.xm{clip-path:url(#wd);}.xn{clip-path:url(#vf);}.xo{clip-path:url(#ll);}.xp{clip-path:url(#cc);}.xq{clip-path:url(#mr);}.xr{clip-path:url(#ij);}.xs{clip-path:url(#me);}.xt{clip-path:url(#ht);}.xu{clip-path:url(#sl);}.xv{clip-path:url(#hd);}.xw{clip-path:url(#vs);}.xx{clip-path:url(#kn);}.xy{clip-path:url(#gs);}.y`{clip-path:url(#ky);}.ya{clip-path:url(#fx);}.yb{clip-path:url(#ha);}.yc{clip-path:url(#mm);}.yd{clip-path:url(#rs);}.ye{clip-path:url(#ar);}.yf{clip-path:url(#lo);}.yg{clip-path:url(#pj);}.yh{clip-path:url(#ki);}.yi{clip-path:url(#oq);}.yj{clip-path:url(#ag);}.yk{clip-path:url(#tw);}.yl{clip-path:url(#oy);}.ym{clip-path:url(#po);}.yn{clip-path:url(#be);}.yo{clip-path:url(#dd);}.yp{clip-path:url(#uh);}.yq{clip-path:url(#hh);}.yr{clip-path:url(#sy);}.ys{clip-path:url(#cs);}.yt{clip-path:url(#on);}.yu{clip-path:url(#uu);}.yv{clip-path:url(#oi);}.yw{clip-path:url(#ka);}.yx{clip-path:url(#ib);}.yy{clip-path:url(#kq);}.a``{clip-path:url(#lt);}.a`a{clip-path:url(#aj);}.a`b{clip-path:url(#eo);}.a`c{clip-path:url(#qe);}.a`d{clip-path:url(#fh);}.a`e{clip-path:url(#tr);}.a`f{clip-path:url(#bp);}.a`g{clip-path:url(#jh);}.a`h{clip-path:url(#u`);}.a`i{clip-path:url(#vk);}.a`j{clip-path:url(#qp);}.a`k{clip-path:url(#pc);}.a`l{clip-path:url(#ho);}.a`m{clip-path:url(#ab);}.a`n{clip-path:url(#rc);}.a`o{clip-path:url(#hw);}.a`p{clip-path:url(#gn);}.a`q{clip-path:url(#cv);}.a`r{clip-path:url(#aw);}.a`s{clip-path:url(#ew);}.a`t{clip-path:url(#ie);}.a`u{clip-path:url(#eg);}.a`v{clip-path:url(#kv);}.a`w{clip-path:url(#dl);}.a`x{clip-path:url(#m);}.a`y{clip-path:url(#nc);}.aa`{clip-path:url(#wa);}.aaa{clip-path:url(#tj);}.aab{clip-path:url(#da);}.aac{clip-path:url(#fp);}.aad{clip-path:url(#vn);}.aae{clip-path:url(#qh);}.aaf{clip-path:url(#mb);}.aag{clip-path:url(#to);}.aah{clip-path:url(#js);}.aai{clip-path:url(#lw);}.aaj{clip-path:url(#oa);}.aak{clip-path:url(#cf);}.aal{clip-path:url(#hl);}.aam{clip-path:url(#t);}.aan{clip-path:url(#rk);}.aao{clip-path:url(#bx);}.aap{clip-path:url(#bu);}.aaq{clip-path:url(#gc);}.aar{clip-path:url(#nk);}.aas{clip-path:url(#qx);}.aat{clip-path:url(#lg);}.aau{clip-path:url(#dy);}.aav{clip-path:url(#si);}.aaw{clip-path:url(#pw);}.aax{fill:none;}.aay{clip-path:url(#q`);}.ab`{clip-path:url(#wt);}.aba{clip-path:url(#b`);}.abb{clip-path:url(#fe);}.abc{clip-path:url(#ao);}.abd{clip-path:url(#eb);}.abe{clip-path:url(#sd);}.abf{clip-path:url(#wi);}.abg{clip-path:url(#wl);}.abh{opacity:.47;}.abi{clip-path:url(#ns);}.abj{clip-path:url(#er);}.abk{clip-path:url(#ux);}.abl{clip-path:url(#gf);}.abm{clip-path:url(#mj);}.abn{clip-path:url(#um);}.abo{clip-path:url(#gk);}.abp{clip-path:url(#gv);}.abq{clip-path:url(#kf);}.abr{clip-path:url(#pr);}.abs{clip-path:url(#st);}.abt{clip-path:url(#im);}.abu{clip-path:url(#pg);}.abv{clip-path:url(#jk);}.abw{clip-path:url(#q);}.abx{clip-path:url(#y);}.aby{clip-path:url(#qu);}.ac`{clip-path:url(#ue);}.aca{clip-path:url(#cn);}.acb{clip-path:url(#tg);}.acc{clip-path:url(#j`);}.acd{clip-path:url(#ej);}.ace{clip-path:url(#np);}.acf{clip-path:url(#of);}.acg{clip-path:url(#nx);}.ach{clip-path:url(#jc);}.aci{clip-path:url(#fu);}.acj{clip-path:url(#nh);}.ack{clip-path:url(#iu);}.acl{clip-path:url(#qm);}.acm{clip-path:url(#rf);}.acn{clip-path:url(#vv);}.aco{clip-path:url(#vc);}.acp{clip-path:url(#sa);}.acq{clip-path:url(#ld);}.acr{clip-path:url(#rn);}.acs{clip-path:url(#ck);}.act{clip-path:url(#up);}.acu{clip-path:url(#rv);}.acv{clip-path:url(#jp);}</style><clipPath id="m"><path class="aax" d="M76.12,88.25l46.9-26.67c2.66-1.69,4.34-4.56,4.52-7.71l-.1-46.31c0-2.84-2.04-3.98-4.54-2.56l-46.9,26.67c-2.66,1.69-4.34,4.56-4.52,7.71l.1,46.31c0,2.84,2.04,3.98,4.54,2.56"/></clipPath><clipPath id="q"><rect class="aax" x="4.56" y="45.41" width="64.84" height="275.17"/></clipPath><clipPath id="t"><path class="aax" d="M61.53,319.33c0-.56-.38-1.04-.92-1.18v-15.58l6.46-6.36,.04-54.29-10.48-10.37v-18.34l12.75-12.54,.02-21.29-18.86-18.65,.04-47.97-13.68-13.52v-5.44l-9.44-9.34v-16.88L6.9,47.25c.28-.48,.2-1.09-.2-1.48-.49-.48-1.28-.48-1.77,0-.48,.47-.49,1.25-.02,1.73l.02,.02c.4,.39,1.01,.48,1.5,.2l20.37,20.14v16.88l9.43,9.34v5.44l13.68,13.52-.04,47.98,18.86,18.65-.02,20.75-12.74,12.54v18.89l10.47,10.37-.04,53.74-6.45,6.36-.02,15.86c-.66,.17-1.05,.84-.88,1.5,.14,.55,.64,.93,1.21,.92,.69,0,1.25-.55,1.25-1.24h0"/></clipPath><clipPath id="y"><rect class="aax" x="115.53" y="38.44" width="42.88" height="284.34"/></clipPath><clipPath id="ab"><path class="aax" d="M122.43,321.55c0-.56-.38-1.05-.92-1.19l.02-25.06-5.35-5.28,.03-35.33,6.93-6.83v-15.9l-2.83-2.82,.02-24.54,13.26-13.07,.02-25.37-11.47-11.33,.02-23.05,14.99-14.77v-15.01l-11.97-11.85v-8.47l17.79-17.52v-10.06l13.57-13.36c.49,.28,1.1,.19,1.5-.2,.48-.47,.49-1.25,.02-1.73l-.02-.02c-.49-.48-1.28-.48-1.77,0-.4,.39-.48,1-.2,1.48l-13.76,13.54v10.06l-17.79,17.53v9.01l11.97,11.85v14.46l-15,14.77-.02,23.6,11.47,11.34-.02,24.83-13.26,13.07-.02,25.08,2.84,2.82v15.36l-6.94,6.83-.03,35.88,5.35,5.28-.02,24.79c-.66,.19-1.03,.88-.84,1.53,.19,.66,.88,1.03,1.53,.84,.53-.15,.89-.64,.89-1.18"/></clipPath><clipPath id="ag"><rect class="aax" x="83.79" y="-10.75" width="49.85" height="329.99"/></clipPath><clipPath id="aj"><path class="aax" d="M86.29,318c0-.56-.38-1.04-.92-1.19l.04-48.28,14.62-14.41v-19.36l-11.36-11.25,.02-28.16,12.63-12.45,.02-20.58-4.8-4.74v-18l7.5-7.37v-14.55l-8.04-7.96v-15.33l10.81-10.64,.02-19.41,14.05-13.84,.04-48.24,10.87-10.7c.49,.27,1.1,.2,1.5-.19,.48-.47,.49-1.25,.02-1.73l-.02-.02c-.49-.48-1.28-.48-1.77,0-.39,.39-.48,1-.2,1.48L120.24,1.99l-.04,48.25-14.05,13.83-.02,19.41-10.79,10.64v15.87l8.04,7.96v14.01l-7.49,7.37v18.55l4.79,4.74-.02,20.03-12.63,12.44-.02,28.7,11.38,11.25v18.82l-14.64,14.41-.04,48.55c-.65,.19-1.03,.88-.84,1.53,.19,.65,.88,1.03,1.53,.84,.53-.15,.89-.64,.89-1.18"/></clipPath><clipPath id="ao"><rect class="aax" x="61.51" y="20.05" width="30.12" height="298.91"/></clipPath><clipPath id="ar"><path class="aax" d="M73.96,295.81l-7.41,7.3v13.42c-.68,.18-1.07,.87-.89,1.54,.18,.67,.87,1.06,1.54,.87,.67-.18,1.06-.87,.87-1.54-.12-.43-.45-.76-.87-.87v-13.15l7.42-7.3,.02-30.05,15.79-15.55v-12.32l-9.93-9.82,.03-36.49,11.09-10.92v-16.15l-8.84-8.76,.02-27.26,8.19-8.07,.03-33.35-19.62-19.4,.03-38.56-7.58-7.5c.28-.48,.2-1.09-.2-1.48-.49-.48-1.28-.48-1.77,0-.48,.47-.49,1.25-.02,1.73l.02,.02c.4,.39,1.01,.47,1.5,.2l7.39,7.3-.03,38.56,19.62,19.4-.03,32.8-8.19,8.07-.02,27.8,8.86,8.76v15.6l-11.1,10.93-.03,37.02,9.94,9.83v11.78l-15.8,15.55-.02,30.06Z"/></clipPath><clipPath id="aw"><rect class="aax" x="72.76" y="124.9" width="12.5" height="132.5"/></clipPath><clipPath id="b`"><path class="aax" d="M73.28,255.3c-.48,.48-.49,1.25-.01,1.73h.01c.49,.49,1.28,.49,1.77,.01,.4-.39,.48-1,.2-1.48l8.51-8.39v-8.1l-9.85-9.75,.03-36.22,11.31-11.14v-14.6l-10.93-10.82,.02-29.23c.67-.18,1.06-.87,.87-1.54-.18-.67-.87-1.06-1.54-.87-.67,.18-1.06,.87-.87,1.54,.12,.43,.45,.76,.87,.87l-.02,29.5,10.94,10.82v14.06l-11.32,11.14-.03,36.77,9.86,9.75v7.56l-8.33,8.2c-.49-.27-1.1-.19-1.5,.2"/></clipPath><clipPath id="be"><rect class="aax" x="65.06" y="210.81" width="9.11" height="36.04"/></clipPath><clipPath id="bh"><path class="aax" d="M73.26,244.43v-7.55l-6.63-6.56v-17.1c.67-.17,1.07-.84,.9-1.5-.14-.55-.64-.93-1.21-.92-.69,0-1.25,.55-1.25,1.23h0c0,.56,.38,1.04,.92,1.18v17.38l6.62,6.56v7.27c-.67,.18-1.06,.87-.88,1.54s.87,1.06,1.54,.87c.67-.18,1.06-.87,.87-1.54-.12-.42-.45-.75-.87-.87"/></clipPath><clipPath id="bm"><rect class="aax" x="16.91" y="-9.83" width="61.23" height="186.43"/></clipPath><clipPath id="bp"><path class="aax" d="M29.98,25.62v16.38l12.89,12.75-.03,31.67,15.85,15.67-.04,55.7,17.16,16.97c-.28,.48-.2,1.09,.2,1.48,.49,.48,1.28,.48,1.77,0,.48-.47,.49-1.25,.02-1.73l-.02-.02c-.4-.39-1.01-.47-1.5-.2l-16.97-16.77,.04-55.7-15.85-15.66,.02-31.67-12.9-12.76V25.35l-12.15-12.02,.02-20.74c.67-.18,1.06-.87,.87-1.54-.18-.67-.87-1.06-1.54-.87-.67,.18-1.06,.87-.87,1.54,.12,.42,.45,.76,.87,.87l-.02,21.01,12.16,12.02Z"/></clipPath><clipPath id="bu"><rect class="aax" x="57.58" y="44.44" width="22.78" height="124.88"/></clipPath><clipPath id="bx"><path class="aax" d="M62.91,121.84l-.03,30.67,15.14,14.96c-.28,.48-.2,1.09,.2,1.48,.49,.48,1.28,.48,1.77,0,.48-.47,.49-1.25,.02-1.73l-.02-.02c-.4-.39-1.01-.48-1.5-.2l-14.94-14.77,.02-30.12,9.32-9.18v-18.38l-13.75-13.61,.03-34.07c.67-.18,1.06-.87,.87-1.54-.18-.67-.87-1.06-1.54-.87-.67,.18-1.06,.87-.87,1.54,.12,.42,.45,.76,.87,.87l-.03,34.35,13.78,13.61v17.84l-9.34,9.18Z"/></clipPath><clipPath id="cc"><rect class="aax" x="31.89" y="8.65" width="35.75" height="102.4"/></clipPath><clipPath id="cf"><path class="aax" d="M41.22,33.09l10.51,10.38-.03,41.86,14.37,14.21v9.09c-.67,.18-1.06,.87-.88,1.54,.18,.66,.87,1.05,1.54,.87s1.05-.87,.87-1.54c-.12-.42-.45-.75-.87-.87v-9.37l-14.37-14.2,.03-41.86-10.5-10.38v-14.75l-7.66-7.58c.28-.48,.2-1.09-.2-1.48-.49-.48-1.28-.48-1.77,0-.48,.47-.49,1.25-.02,1.73l.02,.02c.4,.39,1.01,.47,1.5,.2l7.48,7.39-.02,14.74Z"/></clipPath><clipPath id="ck"><rect class="aax" x="66.12" y="39.53" width="19.25" height="105.21"/></clipPath><clipPath id="cn"><path class="aax" d="M67.04,41.95l-.02,29.75,17.69,17.49-.02,26.3-7.39,7.27v19.57c-.68,.18-1.07,.87-.89,1.54,.18,.67,.87,1.06,1.54,.87,.67-.18,1.06-.87,.87-1.54-.12-.42-.45-.76-.87-.87l.02-19.29,7.38-7.28,.02-26.84-17.69-17.49,.02-29.48c.67-.18,1.06-.87,.87-1.54-.18-.67-.87-1.06-1.54-.87s-1.06,.87-.87,1.54c.12,.42,.45,.76,.87,.87"/></clipPath><clipPath id="cs"><rect class="aax" x="46.69" y="8.02" width="32.96" height="142.35"/></clipPath><clipPath id="cv"><path class="aax" d="M46.69,9.26c0,.56,.38,1.04,.92,1.19v12l15.38,15.21-.03,38.77,16.03,15.85-.02,21.21-9.6,9.46-.02,25.02c-.67,.18-1.06,.87-.87,1.54,.18,.67,.87,1.06,1.54,.87s1.06-.87,.87-1.54c-.12-.42-.45-.75-.87-.87l.02-24.75,9.6-9.46,.02-21.75-16.03-15.85,.03-38.77-15.39-15.21V10.45c.66-.19,1.04-.88,.85-1.53s-.88-1.03-1.53-.84c-.53,.15-.89,.64-.89,1.19"/></clipPath><clipPath id="da"><rect class="aax" x="5.84" y="15.42" width="49.97" height="142.23"/></clipPath><clipPath id="dd"><path class="aax" d="M20.83,51.73l13.36,13.21-.02,20.57,20.09,19.85-.04,49.86c-.67,.18-1.06,.87-.87,1.54,.18,.67,.87,1.06,1.54,.87s1.06-.87,.87-1.54c-.12-.42-.45-.76-.87-.87l.04-50.14-20.09-19.85,.02-20.57-13.36-13.2,.02-21.02-13.34-13.18c.28-.48,.19-1.09-.2-1.48-.49-.48-1.28-.48-1.77,0-.48,.47-.49,1.25-.02,1.73l.02,.02c.4,.39,1.01,.47,1.5,.2l13.14,12.99-.02,21.02Z"/></clipPath><clipPath id="di"><rect class="aax" x="110.01" y="2.26" width="20.79" height="278.11"/></clipPath><clipPath id="dl"><path class="aax" d="M112.51,279.13c0-.56-.38-1.04-.91-1.18l.02-27.66,5.72-5.64,.03-43.14,11.17-11,.02-20.93-13.96-13.8,.02-30.35,12.57-12.39v-13.35l-9.19-9.1v-13.21l11.83-11.65,.05-61.05c.66-.18,1.05-.87,.87-1.54-.18-.66-.87-1.05-1.54-.87s-1.05,.87-.87,1.54c.12,.42,.45,.75,.87,.87l-.05,60.78-11.82,11.64v13.75l9.19,9.1v12.81l-12.58,12.38-.02,30.9,13.96,13.8-.02,20.39-11.17,11-.04,43.14-5.72,5.64-.02,27.93c-.65,.19-1.03,.88-.84,1.53,.19,.65,.88,1.03,1.53,.84,.53-.15,.89-.64,.89-1.19"/></clipPath><clipPath id="dq"><rect class="aax" x="95.11" y="4.08" width="32.02" height="245.34"/></clipPath><clipPath id="dt"><path class="aax" d="M103.49,146.72v-5.65l6.14-6.05,.02-22.98-5.6-5.53v-12.4l6.62-6.51,.02-20.06,15.49-15.26,.04-45.79c.67-.18,1.06-.87,.88-1.54-.18-.67-.87-1.06-1.54-.88s-1.06,.87-.88,1.54c.12,.43,.45,.76,.88,.88l-.04,45.52-15.49,15.26-.02,20.06-6.61,6.51v12.95l5.59,5.53-.02,22.43-6.14,6.05v6.19l5.07,5.01-.02,30.85-12.74,12.55-.02,22.48,9.21,9.11-.02,20.01c-.66,.18-1.05,.87-.87,1.54,.18,.66,.87,1.05,1.54,.87,.66-.18,1.05-.87,.87-1.54-.12-.42-.45-.75-.87-.87l.02-20.28-9.21-9.11,.02-21.93,12.74-12.55,.02-31.39-5.08-5.01Z"/></clipPath><clipPath id="dy"><rect class="aax" x="101.94" y="167.16" width="17.2" height="78.26"/></clipPath><clipPath id="eb"><path class="aax" d="M118.23,169.58c.54-.14,.91-.63,.92-1.18-.03-.69-.61-1.23-1.3-1.2-.65,.03-1.17,.55-1.2,1.2,0,.56,.38,1.04,.92,1.18v10.1l-15.61,15.37v19.39l6.43,6.37-.02,22.2c-.67,.18-1.06,.87-.87,1.54,.18,.67,.87,1.06,1.54,.87,.67-.18,1.06-.87,.87-1.54-.12-.42-.45-.75-.87-.87l.02-22.47-6.45-6.37v-18.84l15.62-15.37v-10.37Z"/></clipPath><clipPath id="eg"><rect class="aax" x="106.55" y="184.82" width="14.55" height="56.6"/></clipPath><clipPath id="ej"><path class="aax" d="M120.74,186.93c.48-.48,.49-1.26,0-1.74h0c-.49-.49-1.28-.49-1.77,0-.39,.39-.48,1-.2,1.48l-12.2,12.03v12.65l6.26,6.19-.02,21.47c-.67,.18-1.06,.87-.87,1.54,.18,.67,.87,1.06,1.54,.87,.67-.18,1.06-.87,.87-1.54-.12-.42-.45-.76-.87-.87l.02-21.74-6.26-6.19v-12.1l12.01-11.84c.49,.27,1.1,.19,1.5-.19"/></clipPath><clipPath id="eo"><rect class="aax" x="66.2" y="11.96" width="31.57" height="74.01"/></clipPath><clipPath id="er"><path class="aax" d="M80.99,26.12l-12.46-12.32c.28-.48,.19-1.09-.2-1.48-.49-.48-1.28-.48-1.77,0-.48,.47-.49,1.25-.01,1.73h.01c.4,.41,1.01,.49,1.5,.21l12.27,12.13-.03,42.77,15.13,14.96c-.28,.48-.2,1.09,.2,1.48,.49,.48,1.28,.48,1.77,0,.48-.48,.49-1.25,.01-1.74h-.01c-.4-.41-1.01-.49-1.5-.21l-14.94-14.77,.03-42.77Z"/></clipPath><clipPath id="ew"><rect class="aax" x="99.47" y="-21.49" width="26.32" height="103.09"/></clipPath><clipPath id="f`"><path class="aax" d="M111.71-8.08V4.85l-6.1,6v13.74l6.99,6.92v17.2l-12.2,12v18.47c-.68,.18-1.07,.87-.89,1.54s.87,1.06,1.54,.87,1.06-.87,.87-1.54c-.12-.42-.45-.75-.87-.87v-18.19l12.2-12V31.24l-6.99-6.92V11.12l6.1-6V-7.81l11.55-11.38c.49,.27,1.1,.2,1.5-.19,.48-.48,.49-1.25,.01-1.74h-.01c-.49-.49-1.28-.49-1.77-.01-.4,.39-.48,1-.2,1.48l-11.74,11.57Z"/></clipPath><clipPath id="fe"><rect class="aax" x="80.29" y="2.44" width="17.02" height="72.61"/></clipPath><clipPath id="fh"><path class="aax" d="M88.35,50.42l8.95-8.82v-10.74l-8.42-8.33V10.47l-6.26-6.2c.28-.48,.2-1.09-.2-1.48-.49-.48-1.28-.48-1.77,0-.48,.47-.49,1.25-.01,1.73h.01c.4,.41,1.01,.49,1.5,.21l6.07,6v12.06l8.42,8.34v10.19l-8.96,8.82v16.47l6.65,6.58c-.28,.48-.2,1.09,.2,1.48,.49,.48,1.28,.48,1.77,0,.48-.47,.49-1.25,.02-1.73l-.02-.02c-.4-.39-1.01-.47-1.5-.2l-6.46-6.39v-15.92Z"/></clipPath><clipPath id="fm"><rect class="aax" x="68.69" y=".04" width="17.08" height="36.05"/></clipPath><clipPath id="fp"><path class="aax" d="M84.19,33.67c-.67,.18-1.06,.87-.87,1.54s.87,1.06,1.54,.87,1.06-.87,.87-1.54c-.12-.42-.45-.76-.87-.87V15.57L71.03,1.88c.28-.48,.2-1.09-.2-1.48-.49-.48-1.28-.48-1.77,0-.48,.47-.49,1.24-.02,1.72l.02,.02c.4,.4,1.01,.48,1.5,.2l13.65,13.49-.02,17.83Z"/></clipPath><clipPath id="fu"><rect class="aax" x="74.1" y="-14.75" width="27.18" height="82.88"/></clipPath><clipPath id="fx"><path class="aax" d="M94.27,5.65v13.02l6.35,6.28-.02,25.39-5.35,5.28v10.09c-.67,.18-1.07,.87-.88,1.54,.18,.67,.87,1.06,1.54,.87s1.06-.87,.87-1.54c-.12-.42-.45-.76-.87-.87v-9.82l5.36-5.27,.02-25.94-6.36-6.29V5.38l-18.49-18.28c.28-.48,.2-1.09-.2-1.48-.49-.49-1.28-.49-1.77,0-.48,.47-.49,1.25-.02,1.73l.02,.02c.4,.39,1.01,.47,1.5,.2L94.27,5.65Z"/></clipPath><clipPath id="gc"><rect class="aax" x="100.38" y="33.19" width="8.46" height="23.29"/></clipPath><clipPath id="gf"><path class="aax" d="M100.74,54.38c-.48,.47-.49,1.24-.02,1.73l.02,.02c.49,.48,1.28,.48,1.77,0,.4-.39,.48-1,.2-1.48l5.19-5.11v-13.92c.55-.14,.93-.63,.93-1.18-.04-.69-.63-1.22-1.32-1.18-.64,.04-1.14,.54-1.18,1.18,0,.56,.38,1.04,.92,1.18v13.64l-5.01,4.93c-.49-.28-1.1-.19-1.5,.2"/></clipPath><clipPath id="gk"><rect class="aax" x="66.26" y="61.15" width="59.4" height="284.75"/></clipPath><clipPath id="gn"><path class="aax" d="M103.34,266.28l.02-23.06,.04-.04-.04-.04,.04-53.99-11.53-11.39,.03-35.25,2.88-2.84c.67,.38,1.51,.27,2.06-.27,.66-.65,.67-1.72,.02-2.38l-.02-.02c-.67-.66-1.76-.66-2.43,0-.54,.54-.66,1.37-.28,2.03l-3.15,3.11-.03,34.72-6.51-6.43c.38-.66,.27-1.5-.27-2.03-.67-.66-1.76-.66-2.43,0-.66,.65-.67,1.71-.03,2.37l.03,.03c.55,.54,1.39,.65,2.06,.27l18.68,18.46-.02,29.94-8.2-8.1v-12.46c.93-.25,1.46-1.2,1.21-2.11-.25-.92-1.2-1.45-2.11-1.2-.92,.25-1.45,1.2-1.2,2.11,.16,.58,.62,1.04,1.2,1.2v12.84l9.1,9.01-.02,21.49-20.84-20.6,.03-38.01-13.29-13.15v-13.21l12.03-11.84v-18.11h.02l6.37-6.27,.02-24.16c.92-.25,1.45-1.2,1.2-2.12s-1.2-1.45-2.12-1.2c-.92,.25-1.45,1.2-1.2,2.12,.16,.58,.62,1.04,1.2,1.2l-.02,23.79-5.46,5.38,.03-36.62c.92-.25,1.45-1.2,1.2-2.11-.25-.92-1.2-1.45-2.11-1.2s-1.45,1.2-1.2,2.11c.16,.58,.62,1.04,1.2,1.2l-.04,55.61-11.1,10.93,.07-91.53c.91-.25,1.45-1.2,1.2-2.11-.25-.91-1.2-1.45-2.11-1.2s-1.45,1.2-1.2,2.11c.16,.58,.62,1.04,1.2,1.2l-.08,106.39,13.29,13.14-.03,38.01,11.71,11.58v11.93l-4.56,4.49c-.67-.38-1.51-.27-2.06,.27-.66,.65-.68,1.71-.03,2.37l.03,.03c.67,.66,1.76,.66,2.43,0,.54-.53,.66-1.37,.28-2.03l4.83-4.75v-11.4l9.14,9.02-.02,23.14,16.17,15.99v15.02l4.91,4.87-.03,40.05c-.92,.25-1.45,1.2-1.2,2.11s1.2,1.45,2.11,1.2c.92-.25,1.45-1.2,1.2-2.11-.16-.58-.62-1.04-1.2-1.2l.03-40.42-4.93-4.87v-15.02l-16.17-15.99Z"/></clipPath><clipPath id="gs"><rect class="aax" x="83.87" y="9.39" width="60.43" height="282.08"/></clipPath><clipPath id="gv"><path class="aax" d="M93.46,81.2l-7.45-7.36,.03-42.39c.92-.25,1.45-1.2,1.2-2.11-.25-.92-1.2-1.45-2.11-1.2-.92,.25-1.45,1.2-1.2,2.11,.16,.58,.62,1.04,1.2,1.2l-.03,42.77,8.31,8.22,.05-.05-.03,38.3,15.8,15.62-.02,20.93-7.72,7.61c-.67-.38-1.51-.27-2.06,.27-.66,.65-.68,1.71-.03,2.37l.03,.03c.68,.66,1.76,.66,2.43,0,.54-.53,.66-1.37,.28-2.03l7.99-7.88,.02-20.4,12.84,12.7-.06,76.75,20.45,20.21-.04,44.62h.91l.04-44.99-20.46-20.21,.03-34.54,.02,.02,8.55-8.43,.04-44.81-28.26-27.94v-9.91l10.25-10.09,.05-64.82,8.94-8.8c.67,.38,1.51,.27,2.06-.27,.66-.65,.67-1.72,.02-2.38l-.02-.02c-.68-.66-1.75-.66-2.43,0-.54,.54-.66,1.37-.28,2.03l-9.2,9.07-.05,64.82-9.33,9.19,.02-27.54c.92-.25,1.45-1.2,1.2-2.12s-1.2-1.45-2.12-1.2c-.92,.25-1.45,1.2-1.2,2.12,.16,.58,.62,1.04,1.2,1.2l-.03,39.1,28.26,27.93-.04,44.07-7.65,7.54,.03-40.96-29.56-29.22,.09-107.59c.9-.23,1.45-1.15,1.21-2.06-.2-.76-.89-1.28-1.67-1.27-.93-.02-1.7,.72-1.72,1.65-.02,.78,.51,1.47,1.26,1.67l-.06,68.48Z"/></clipPath><clipPath id="ha"><rect class="aax" x="28.5" y="13.7" width="90.99" height="335.19"/></clipPath><clipPath id="hd"><path class="aax" d="M110.98,348.4c.54-.53,.66-1.37,.28-2.03l8.22-8.1v-17.81l-9.29-9.19v-17.08l-15.42-15.25v-13.2c.93-.25,1.46-1.2,1.21-2.11s-1.2-1.45-2.11-1.2c-.92,.25-1.45,1.2-1.2,2.11,.16,.58,.62,1.04,1.2,1.2v13.57l15.42,15.25v15.8l-24.94-24.64,.02-25.34-10.78-10.66,.03-38.38-8.09-7.99,.02-21.94-2.82-2.79c.38-.66,.27-1.5-.27-2.03-.67-.66-1.76-.66-2.43,0-.66,.65-.67,1.71-.03,2.37l.03,.03c.55,.54,1.39,.65,2.06,.27l2.55,2.52v11.67l-15.73-15.55v-11.07l9.72-9.56v-18.97c.93-.25,1.47-1.2,1.21-2.11s-1.2-1.45-2.11-1.2c-.92,.25-1.45,1.2-1.2,2.11,.16,.58,.62,1.04,1.2,1.2v18.6l-8.81,8.66,.02-29.71,9.96-9.81,.06-70.97,5.44-5.37c.67,.38,1.51,.27,2.06-.27,.66-.65,.68-1.71,.03-2.37l-.03-.03c-.67-.66-1.76-.66-2.43,0-.54,.54-.66,1.37-.27,2.03l-5.71,5.63-.04,54.03-15.03-14.85,.05-66.48-11.31-11.17c.38-.66,.27-1.5-.27-2.03-.67-.67-1.76-.67-2.43,0-.66,.65-.67,1.71-.02,2.38l.02,.02c.55,.54,1.39,.65,2.06,.27l11.04,10.91-.05,66.48,15.94,15.76v15.66l-9.97,9.81-.03,42.8,16.64,16.44v9l8.08,7.99-.03,37.1-15.63-15.46,.03-33.76c.91-.25,1.45-1.2,1.2-2.11-.25-.91-1.2-1.45-2.11-1.2s-1.45,1.2-1.2,2.11c.16,.58,.62,1.04,1.2,1.2l-.03,34.14,27.33,27.02-.02,25.34,35.14,34.73v17.06l-7.97,7.84c-.67-.38-1.51-.27-2.06,.27-.66,.65-.68,1.71-.03,2.37l.03,.03c.67,.66,1.76,.66,2.43,0"/></clipPath><clipPath id="hh"><path class="aax" d="M122.85,67.92l-46.9,26.67c-2.66,1.69-4.34,4.56-4.52,7.71l.1,46.31c0,2.84,2.04,3.98,4.54,2.56l46.9-26.67c2.66-1.69,4.34-4.56,4.52-7.7l-.1-46.31c0-2.84-2.04-3.98-4.54-2.56"/></clipPath><clipPath id="hl"><rect class="aax" x="4.56" y="45.41" width="64.84" height="275.17"/></clipPath><clipPath id="ho"><path class="aax" d="M61.53,319.33c0-.56-.38-1.04-.92-1.18v-15.58l6.46-6.36,.04-54.29-10.48-10.37v-18.34l12.75-12.54,.02-21.29-18.86-18.65,.04-47.97-13.68-13.52v-5.44l-9.44-9.34v-16.88L6.9,47.25c.28-.48,.2-1.09-.2-1.48-.49-.48-1.28-.48-1.77,0-.48,.47-.49,1.25-.02,1.73l.02,.02c.4,.39,1.01,.48,1.5,.2l20.37,20.14v16.88l9.43,9.34v5.44l13.68,13.52-.04,47.98,18.86,18.65-.02,20.75-12.74,12.54v18.89l10.47,10.37-.04,53.74-6.45,6.36-.02,15.86c-.66,.17-1.05,.84-.88,1.5,.14,.55,.64,.93,1.21,.92,.69,0,1.25-.55,1.25-1.24h0"/></clipPath><clipPath id="ht"><rect class="aax" x="115.53" y="38.44" width="42.88" height="284.34"/></clipPath><clipPath id="hw"><path class="aax" d="M122.43,321.55c0-.56-.38-1.05-.92-1.19l.02-25.06-5.35-5.28,.03-35.33,6.93-6.83v-15.9l-2.83-2.82,.02-24.54,13.26-13.07,.02-25.37-11.47-11.33,.02-23.05,14.99-14.77v-15.01l-11.97-11.85v-8.47l17.79-17.52v-10.06l13.57-13.36c.49,.28,1.1,.19,1.5-.2,.48-.47,.49-1.25,.02-1.73l-.02-.02c-.49-.48-1.28-.48-1.77,0-.4,.39-.48,1-.2,1.48l-13.76,13.54v10.06l-17.79,17.53v9.01l11.97,11.85v14.46l-15,14.77-.02,23.6,11.47,11.34-.02,24.83-13.26,13.07-.02,25.08,2.84,2.82v15.36l-6.94,6.83-.03,35.88,5.35,5.28-.02,24.79c-.66,.19-1.03,.88-.84,1.53,.19,.66,.88,1.03,1.53,.84,.53-.15,.89-.64,.89-1.18"/></clipPath><clipPath id="ib"><rect class="aax" x="83.79" y="-10.76" width="49.85" height="329.99"/></clipPath><clipPath id="ie"><path class="aax" d="M86.29,318c0-.56-.38-1.04-.92-1.19l.04-48.28,14.62-14.41v-19.36l-11.36-11.25,.02-28.16,12.63-12.45,.02-20.58-4.8-4.74v-18l7.5-7.37v-14.55l-8.04-7.96v-15.33l10.81-10.64,.02-19.41,14.05-13.84,.04-48.24,10.87-10.7c.49,.27,1.1,.2,1.5-.19,.48-.47,.49-1.25,.02-1.73l-.02-.02c-.49-.48-1.28-.48-1.77,0-.39,.39-.48,1-.2,1.48L120.24,1.99l-.04,48.25-14.05,13.83-.02,19.41-10.79,10.64v15.87l8.04,7.96v14.01l-7.49,7.37v18.55l4.79,4.74-.02,20.03-12.63,12.44-.02,28.7,11.38,11.25v18.82l-14.64,14.41-.04,48.55c-.65,.19-1.03,.88-.84,1.53,.19,.65,.88,1.03,1.53,.84,.53-.15,.89-.64,.89-1.18"/></clipPath><clipPath id="ij"><rect class="aax" x="61.51" y="20.04" width="30.12" height="298.91"/></clipPath><clipPath id="im"><path class="aax" d="M73.96,295.81l-7.41,7.3v13.42c-.68,.18-1.07,.87-.89,1.54,.18,.67,.87,1.06,1.54,.87,.67-.18,1.06-.87,.87-1.54-.12-.43-.45-.76-.87-.87v-13.15l7.42-7.3,.02-30.05,15.79-15.55v-12.32l-9.93-9.82,.03-36.49,11.09-10.92v-16.15l-8.84-8.76,.02-27.26,8.19-8.07,.03-33.35-19.62-19.4,.03-38.56-7.58-7.5c.28-.48,.2-1.09-.2-1.48-.49-.48-1.28-.48-1.77,0-.48,.47-.49,1.25-.02,1.73l.02,.02c.4,.39,1.01,.47,1.5,.2l7.39,7.3-.03,38.56,19.62,19.4-.03,32.8-8.19,8.07-.02,27.8,8.86,8.76v15.6l-11.1,10.93-.03,37.02,9.94,9.83v11.78l-15.8,15.55-.02,30.06Z"/></clipPath><clipPath id="ir"><rect class="aax" x="72.76" y="124.9" width="12.5" height="132.5"/></clipPath><clipPath id="iu"><path class="aax" d="M73.28,255.3c-.48,.48-.49,1.25-.01,1.73h.01c.49,.49,1.28,.49,1.77,.01,.4-.39,.48-1,.2-1.48l8.51-8.39v-8.1l-9.85-9.75,.03-36.22,11.31-11.14v-14.6l-10.93-10.82,.02-29.23c.67-.18,1.06-.87,.87-1.54-.18-.67-.87-1.06-1.54-.87-.67,.18-1.06,.87-.87,1.54,.12,.43,.45,.76,.87,.87l-.02,29.5,10.94,10.82v14.06l-11.32,11.14-.03,36.77,9.86,9.75v7.56l-8.33,8.2c-.49-.27-1.1-.19-1.5,.2"/></clipPath><clipPath id="j`"><rect class="aax" x="65.06" y="210.81" width="9.11" height="36.04"/></clipPath><clipPath id="jc"><path class="aax" d="M73.26,244.43v-7.55l-6.63-6.56v-17.1c.67-.17,1.07-.84,.9-1.5-.14-.55-.64-.93-1.21-.92-.69,0-1.25,.55-1.25,1.23h0c0,.56,.38,1.04,.92,1.18v17.38l6.62,6.56v7.27c-.67,.18-1.06,.87-.88,1.54s.87,1.06,1.54,.87c.67-.18,1.06-.87,.87-1.54-.12-.42-.45-.75-.87-.87"/></clipPath><clipPath id="jh"><rect class="aax" x="16.91" y="-9.83" width="61.23" height="186.43"/></clipPath><clipPath id="jk"><path class="aax" d="M29.98,25.62v16.38l12.89,12.75-.03,31.67,15.85,15.67-.04,55.7,17.16,16.97c-.28,.48-.2,1.09,.2,1.48,.49,.48,1.28,.48,1.77,0,.48-.47,.49-1.25,.02-1.73l-.02-.02c-.4-.39-1.01-.47-1.5-.2l-16.97-16.77,.04-55.7-15.85-15.66,.02-31.67-12.9-12.76V25.35l-12.15-12.02,.02-20.74c.67-.18,1.06-.87,.87-1.54-.18-.67-.87-1.06-1.54-.87-.67,.18-1.06,.87-.87,1.54,.12,.42,.45,.76,.87,.87l-.02,21.01,12.16,12.02Z"/></clipPath><clipPath id="jp"><rect class="aax" x="57.58" y="44.44" width="22.78" height="124.88"/></clipPath><clipPath id="js"><path class="aax" d="M62.91,121.84l-.03,30.67,15.14,14.96c-.28,.48-.2,1.09,.2,1.48,.49,.48,1.28,.48,1.77,0,.48-.47,.49-1.25,.02-1.73l-.02-.02c-.4-.39-1.01-.48-1.5-.2l-14.94-14.77,.02-30.12,9.32-9.18v-18.38l-13.75-13.61,.03-34.07c.67-.18,1.06-.87,.87-1.54-.18-.67-.87-1.06-1.54-.87-.67,.18-1.06,.87-.87,1.54,.12,.42,.45,.76,.87,.87l-.03,34.35,13.78,13.61v17.84l-9.34,9.18Z"/></clipPath><clipPath id="jx"><rect class="aax" x="31.89" y="8.65" width="35.75" height="102.4"/></clipPath><clipPath id="ka"><path class="aax" d="M41.22,33.09l10.51,10.38-.03,41.86,14.37,14.21v9.09c-.67,.18-1.06,.87-.88,1.54,.18,.66,.87,1.05,1.54,.87s1.05-.87,.87-1.54c-.12-.42-.45-.75-.87-.87v-9.37l-14.37-14.2,.03-41.86-10.5-10.38v-14.75l-7.66-7.58c.28-.48,.2-1.09-.2-1.48-.49-.48-1.28-.48-1.77,0-.48,.47-.49,1.25-.02,1.73l.02,.02c.4,.39,1.01,.47,1.5,.2l7.48,7.39-.02,14.74Z"/></clipPath><clipPath id="kf"><rect class="aax" x="66.12" y="39.53" width="19.25" height="105.21"/></clipPath><clipPath id="ki"><path class="aax" d="M67.04,41.95l-.02,29.75,17.69,17.49-.02,26.3-7.39,7.27v19.57c-.68,.18-1.07,.87-.89,1.54,.18,.67,.87,1.06,1.54,.87,.67-.18,1.06-.87,.87-1.54-.12-.42-.45-.76-.87-.87l.02-19.29,7.38-7.28,.02-26.84-17.69-17.49,.02-29.48c.67-.18,1.06-.87,.87-1.54-.18-.67-.87-1.06-1.54-.87s-1.06,.87-.87,1.54c.12,.42,.45,.76,.87,.87"/></clipPath><clipPath id="kn"><rect class="aax" x="46.69" y="8.02" width="32.96" height="142.35"/></clipPath><clipPath id="kq"><path class="aax" d="M46.69,9.26c0,.56,.38,1.04,.92,1.19v12l15.38,15.21-.03,38.77,16.03,15.85-.02,21.21-9.6,9.46-.02,25.02c-.67,.18-1.06,.87-.87,1.54,.18,.67,.87,1.06,1.54,.87s1.06-.87,.87-1.54c-.12-.42-.45-.75-.87-.87l.02-24.75,9.6-9.46,.02-21.75-16.03-15.85,.03-38.77-15.39-15.21V10.45c.66-.19,1.04-.88,.85-1.53s-.88-1.03-1.53-.84c-.53,.15-.89,.64-.89,1.19"/></clipPath><clipPath id="kv"><rect class="aax" x="5.84" y="15.42" width="49.97" height="142.23"/></clipPath><clipPath id="ky"><path class="aax" d="M20.83,51.73l13.36,13.21-.02,20.57,20.09,19.85-.04,49.86c-.67,.18-1.06,.87-.87,1.54,.18,.67,.87,1.06,1.54,.87s1.06-.87,.87-1.54c-.12-.42-.45-.76-.87-.87l.04-50.14-20.09-19.85,.02-20.57-13.36-13.2,.02-21.02-13.34-13.18c.28-.48,.19-1.09-.2-1.48-.49-.48-1.28-.48-1.77,0-.48,.47-.49,1.25-.02,1.73l.02,.02c.4,.39,1.01,.47,1.5,.2l13.14,12.99-.02,21.02Z"/></clipPath><clipPath id="ld"><rect class="aax" x="110.01" y="2.26" width="20.79" height="278.11"/></clipPath><clipPath id="lg"><path class="aax" d="M112.51,279.13c0-.56-.38-1.04-.91-1.18l.02-27.66,5.72-5.64,.03-43.14,11.17-11,.02-20.93-13.96-13.8,.02-30.35,12.57-12.39v-13.35l-9.19-9.1v-13.21l11.83-11.65,.05-61.05c.66-.18,1.05-.87,.87-1.54-.18-.66-.87-1.05-1.54-.87s-1.05,.87-.87,1.54c.12,.42,.45,.75,.87,.87l-.05,60.78-11.82,11.64v13.75l9.19,9.1v12.81l-12.58,12.38-.02,30.9,13.96,13.8-.02,20.39-11.17,11-.04,43.14-5.72,5.64-.02,27.93c-.65,.19-1.03,.88-.84,1.53,.19,.65,.88,1.03,1.53,.84,.53-.15,.89-.64,.89-1.19"/></clipPath><clipPath id="ll"><rect class="aax" x="95.11" y="4.08" width="32.02" height="245.34"/></clipPath><clipPath id="lo"><path class="aax" d="M103.49,146.72v-5.65l6.14-6.05,.02-22.98-5.6-5.53v-12.4l6.62-6.51,.02-20.06,15.49-15.26,.04-45.79c.67-.18,1.06-.87,.88-1.54-.18-.67-.87-1.06-1.54-.88s-1.06,.87-.88,1.54c.12,.43,.45,.76,.88,.88l-.04,45.52-15.49,15.26-.02,20.06-6.61,6.51v12.95l5.59,5.53-.02,22.43-6.14,6.05v6.19l5.07,5.01-.02,30.85-12.74,12.55-.02,22.48,9.21,9.11-.02,20.01c-.66,.18-1.05,.87-.87,1.54,.18,.66,.87,1.05,1.54,.87,.66-.18,1.05-.87,.87-1.54-.12-.42-.45-.75-.87-.87l.02-20.28-9.21-9.11,.02-21.93,12.74-12.55,.02-31.39-5.08-5.01Z"/></clipPath><clipPath id="lt"><rect class="aax" x="101.94" y="167.16" width="17.2" height="78.26"/></clipPath><clipPath id="lw"><path class="aax" d="M118.23,169.58c.54-.14,.91-.63,.92-1.18-.03-.69-.61-1.23-1.3-1.2-.65,.03-1.17,.55-1.2,1.2,0,.56,.38,1.04,.92,1.18v10.1l-15.61,15.37v19.39l6.43,6.37-.02,22.2c-.67,.18-1.06,.87-.87,1.54,.18,.67,.87,1.06,1.54,.87,.67-.18,1.06-.87,.87-1.54-.12-.42-.45-.75-.87-.87l.02-22.47-6.45-6.37v-18.84l15.62-15.37v-10.37Z"/></clipPath><clipPath id="mb"><rect class="aax" x="106.56" y="184.82" width="14.55" height="56.6"/></clipPath><clipPath id="me"><path class="aax" d="M120.74,186.93c.48-.48,.49-1.26,0-1.74h0c-.49-.49-1.28-.49-1.77,0-.39,.39-.48,1-.2,1.48l-12.2,12.03v12.65l6.26,6.19-.02,21.47c-.67,.18-1.06,.87-.87,1.54,.18,.67,.87,1.06,1.54,.87,.67-.18,1.06-.87,.87-1.54-.12-.42-.45-.76-.87-.87l.02-21.74-6.26-6.19v-12.1l12.01-11.84c.49,.27,1.1,.19,1.5-.19"/></clipPath><clipPath id="mj"><rect class="aax" x="66.2" y="11.96" width="31.57" height="74.01"/></clipPath><clipPath id="mm"><path class="aax" d="M80.99,26.12l-12.46-12.32c.28-.48,.19-1.09-.2-1.48-.49-.48-1.28-.48-1.77,0-.48,.47-.49,1.25-.01,1.73h.01c.4,.41,1.01,.49,1.5,.21l12.27,12.13-.03,42.77,15.13,14.96c-.28,.48-.2,1.09,.2,1.48,.49,.48,1.28,.48,1.77,0,.48-.48,.49-1.25,.01-1.74h-.01c-.4-.41-1.01-.49-1.5-.21l-14.94-14.77,.03-42.77Z"/></clipPath><clipPath id="mr"><rect class="aax" x="99.47" y="-21.49" width="26.32" height="103.09"/></clipPath><clipPath id="mu"><path class="aax" d="M111.71-8.08V4.85l-6.1,6v13.74l6.99,6.92v17.2l-12.2,12v18.47c-.68,.18-1.07,.87-.89,1.54s.87,1.06,1.54,.87,1.06-.87,.87-1.54c-.12-.42-.45-.75-.87-.87v-18.19l12.2-12V31.24l-6.99-6.92V11.11l6.1-6V-7.81l11.55-11.38c.49,.27,1.1,.2,1.5-.19,.48-.48,.49-1.25,.01-1.74h-.01c-.49-.49-1.28-.49-1.77-.01-.4,.39-.48,1-.2,1.48l-11.74,11.57Z"/></clipPath><clipPath id="n`"><rect class="aax" x="80.29" y="2.44" width="17.02" height="72.61"/></clipPath><clipPath id="nc"><path class="aax" d="M88.35,50.42l8.95-8.82v-10.74l-8.42-8.33V10.47l-6.26-6.2c.28-.48,.2-1.09-.2-1.48-.49-.48-1.28-.48-1.77,0-.48,.47-.49,1.25-.01,1.73h.01c.4,.41,1.01,.49,1.5,.21l6.07,6v12.06l8.42,8.34v10.19l-8.96,8.82v16.47l6.65,6.58c-.28,.48-.2,1.09,.2,1.48,.49,.48,1.28,.48,1.77,0,.48-.47,.49-1.25,.02-1.73l-.02-.02c-.4-.39-1.01-.47-1.5-.2l-6.46-6.39v-15.92Z"/></clipPath><clipPath id="nh"><rect class="aax" x="68.69" y=".04" width="17.08" height="36.05"/></clipPath><clipPath id="nk"><path class="aax" d="M84.19,33.67c-.67,.18-1.06,.87-.87,1.54s.87,1.06,1.54,.87,1.06-.87,.87-1.54c-.12-.42-.45-.76-.87-.87V15.57L71.03,1.88c.28-.48,.2-1.09-.2-1.48-.49-.48-1.28-.48-1.77,0-.48,.47-.49,1.24-.02,1.72l.02,.02c.4,.4,1.01,.48,1.5,.2l13.65,13.49-.02,17.83Z"/></clipPath><clipPath id="np"><rect class="aax" x="74.1" y="-14.75" width="27.18" height="82.88"/></clipPath><clipPath id="ns"><path class="aax" d="M94.27,5.65v13.02l6.35,6.28-.02,25.39-5.35,5.28v10.09c-.67,.18-1.07,.87-.88,1.54,.18,.67,.87,1.06,1.54,.87s1.06-.87,.87-1.54c-.12-.42-.45-.76-.87-.87v-9.82l5.36-5.27,.02-25.94-6.36-6.29V5.38l-18.49-18.28c.28-.48,.2-1.09-.2-1.48-.49-.49-1.28-.49-1.77,0-.48,.47-.49,1.25-.02,1.73l.02,.02c.4,.39,1.01,.47,1.5,.2L94.27,5.65Z"/></clipPath><clipPath id="nx"><rect class="aax" x="100.38" y="33.19" width="8.46" height="23.29"/></clipPath><clipPath id="oa"><path class="aax" d="M100.74,54.38c-.48,.47-.49,1.24-.02,1.73l.02,.02c.49,.48,1.28,.48,1.77,0,.4-.39,.48-1,.2-1.48l5.19-5.11v-13.92c.55-.14,.93-.63,.93-1.18-.04-.69-.63-1.22-1.32-1.18-.64,.04-1.14,.54-1.18,1.18,0,.56,.38,1.04,.92,1.18v13.64l-5.01,4.93c-.49-.28-1.1-.19-1.5,.2"/></clipPath><clipPath id="of"><rect class="aax" x="66.26" y="61.15" width="59.4" height="284.75"/></clipPath><clipPath id="oi"><path class="aax" d="M103.34,266.28l.02-23.06,.04-.04-.04-.04,.04-53.99-11.53-11.39,.03-35.25,2.88-2.84c.67,.38,1.51,.27,2.06-.27,.66-.65,.67-1.72,.02-2.38l-.02-.02c-.67-.66-1.76-.66-2.43,0-.54,.54-.66,1.37-.28,2.03l-3.15,3.11-.03,34.72-6.51-6.43c.38-.66,.27-1.5-.27-2.03-.67-.66-1.76-.66-2.43,0-.66,.65-.67,1.71-.03,2.37l.03,.03c.55,.54,1.39,.65,2.06,.27l18.68,18.46-.02,29.94-8.2-8.1v-12.46c.93-.25,1.46-1.2,1.21-2.11-.25-.92-1.2-1.45-2.11-1.2-.92,.25-1.45,1.2-1.2,2.11,.16,.58,.62,1.04,1.2,1.2v12.84l9.1,9.01-.02,21.49-20.84-20.6,.03-38.01-13.29-13.15v-13.21l12.03-11.84v-18.11h.02l6.37-6.27,.02-24.16c.92-.25,1.45-1.2,1.2-2.12s-1.2-1.45-2.12-1.2c-.92,.25-1.45,1.2-1.2,2.12,.16,.58,.62,1.04,1.2,1.2l-.02,23.79-5.46,5.38,.03-36.62c.92-.25,1.45-1.2,1.2-2.11-.25-.92-1.2-1.45-2.11-1.2s-1.45,1.2-1.2,2.11c.16,.58,.62,1.04,1.2,1.2l-.04,55.61-11.1,10.93,.07-91.53c.91-.25,1.45-1.2,1.2-2.11-.25-.91-1.2-1.45-2.11-1.2s-1.45,1.2-1.2,2.11c.16,.58,.62,1.04,1.2,1.2l-.08,106.39,13.29,13.14-.03,38.01,11.71,11.58v11.93l-4.56,4.49c-.67-.38-1.51-.27-2.06,.27-.66,.65-.68,1.71-.03,2.37l.03,.03c.67,.66,1.76,.66,2.43,0,.54-.53,.66-1.37,.28-2.03l4.83-4.75v-11.4l9.14,9.02-.02,23.14,16.17,15.99v15.02l4.91,4.87-.03,40.05c-.92,.25-1.45,1.2-1.2,2.11s1.2,1.45,2.11,1.2c.92-.25,1.45-1.2,1.2-2.11-.16-.58-.62-1.04-1.2-1.2l.03-40.42-4.93-4.87v-15.02l-16.17-15.99Z"/></clipPath><clipPath id="on"><rect class="aax" x="83.87" y="9.39" width="60.43" height="282.08"/></clipPath><clipPath id="oq"><path class="aax" d="M93.46,81.19l-7.45-7.36,.03-42.39c.92-.25,1.45-1.2,1.2-2.11-.25-.92-1.2-1.45-2.11-1.2-.92,.25-1.45,1.2-1.2,2.11,.16,.58,.62,1.04,1.2,1.2l-.03,42.77,8.31,8.22,.05-.05-.03,38.3,15.8,15.62-.02,20.93-7.72,7.61c-.67-.38-1.51-.27-2.06,.27-.66,.65-.68,1.71-.03,2.37l.03,.03c.68,.66,1.76,.66,2.43,0,.54-.53,.66-1.37,.28-2.03l7.99-7.88,.02-20.4,12.84,12.7-.06,76.75,20.45,20.21-.04,44.62h.91l.04-44.99-20.46-20.21,.03-34.54,.02,.02,8.55-8.43,.04-44.81-28.26-27.94v-9.91l10.25-10.09,.05-64.82,8.94-8.8c.67,.38,1.51,.27,2.06-.27,.66-.65,.67-1.72,.02-2.38l-.02-.02c-.68-.66-1.75-.66-2.43,0-.54,.54-.66,1.37-.28,2.03l-9.2,9.07-.05,64.82-9.33,9.19,.02-27.54c.92-.25,1.45-1.2,1.2-2.12s-1.2-1.45-2.12-1.2c-.92,.25-1.45,1.2-1.2,2.12,.16,.58,.62,1.04,1.2,1.2l-.03,39.1,28.26,27.93-.04,44.07-7.65,7.54,.03-40.96-29.56-29.22,.09-107.59c.9-.23,1.45-1.15,1.21-2.06-.2-.76-.89-1.28-1.67-1.27-.93-.02-1.7,.72-1.72,1.65-.02,.78,.51,1.47,1.26,1.67l-.06,68.48Z"/></clipPath><clipPath id="ov"><rect class="aax" x="28.5" y="13.7" width="90.99" height="335.19"/></clipPath><clipPath id="oy"><path class="aax" d="M110.98,348.4c.54-.53,.66-1.37,.28-2.03l8.22-8.1v-17.81l-9.29-9.19v-17.08l-15.42-15.25v-13.2c.93-.25,1.46-1.2,1.21-2.11s-1.2-1.45-2.11-1.2c-.92,.25-1.45,1.2-1.2,2.11,.16,.58,.62,1.04,1.2,1.2v13.57l15.42,15.25v15.8l-24.94-24.64,.02-25.34-10.78-10.66,.03-38.38-8.09-7.99,.02-21.94-2.82-2.79c.38-.66,.27-1.5-.27-2.03-.67-.66-1.76-.66-2.43,0-.66,.65-.67,1.71-.03,2.37l.03,.03c.55,.54,1.39,.65,2.06,.27l2.55,2.52v11.67l-15.73-15.55v-11.07l9.72-9.56v-18.97c.93-.25,1.47-1.2,1.21-2.11s-1.2-1.45-2.11-1.2c-.92,.25-1.45,1.2-1.2,2.11,.16,.58,.62,1.04,1.2,1.2v18.6l-8.81,8.66,.02-29.71,9.96-9.81,.06-70.97,5.44-5.37c.67,.38,1.51,.27,2.06-.27,.66-.65,.68-1.71,.03-2.37l-.03-.03c-.67-.66-1.76-.66-2.43,0-.54,.54-.66,1.37-.27,2.03l-5.71,5.63-.04,54.03-15.03-14.85,.05-66.48-11.31-11.17c.38-.66,.27-1.5-.27-2.03-.67-.67-1.76-.67-2.43,0-.66,.65-.67,1.71-.02,2.38l.02,.02c.55,.54,1.39,.65,2.06,.27l11.04,10.91-.05,66.48,15.94,15.76v15.66l-9.97,9.81-.03,42.8,16.64,16.44v9l8.08,7.99-.03,37.1-15.63-15.46,.03-33.76c.91-.25,1.45-1.2,1.2-2.11-.25-.91-1.2-1.45-2.11-1.2s-1.45,1.2-1.2,2.11c.16,.58,.62,1.04,1.2,1.2l-.03,34.14,27.33,27.02-.02,25.34,35.14,34.73v17.06l-7.97,7.84c-.67-.38-1.51-.27-2.06,.27-.66,.65-.68,1.71-.03,2.37l.03,.03c.67,.66,1.76,.66,2.43,0"/></clipPath><clipPath id="pc"><path class="aax" d="M122.8,130.84l-46.9,26.67c-2.66,1.69-4.34,4.56-4.52,7.7l.1,46.31c0,.28,.03,.57,.07,.85l-.03,14.47c.03,1.71,1.44,3.07,3.15,3.04,1.66-.03,3.01-1.37,3.04-3.04l.03-13.74,45.18-25.69c2.66-1.69,4.34-4.56,4.52-7.7l-.1-46.31c0-2.84-2.04-3.98-4.54-2.56"/></clipPath><clipPath id="pg"><rect class="aax" x="4.56" y="45.41" width="64.84" height="275.17"/></clipPath><clipPath id="pj"><path class="aax" d="M61.53,319.33c0-.56-.38-1.04-.92-1.18v-15.58l6.46-6.36,.04-54.29-10.48-10.37v-18.34l12.75-12.54,.02-21.29-18.86-18.65,.04-47.97-13.68-13.52v-5.44l-9.44-9.34v-16.88L6.9,47.25c.28-.48,.2-1.09-.2-1.48-.49-.48-1.28-.48-1.77,0-.48,.47-.49,1.25-.02,1.73l.02,.02c.4,.39,1.01,.48,1.5,.2l20.37,20.14v16.88l9.43,9.34v5.44l13.68,13.52-.04,47.98,18.86,18.65-.02,20.75-12.74,12.54v18.89l10.47,10.37-.04,53.74-6.45,6.36-.02,15.86c-.66,.17-1.05,.84-.88,1.5,.14,.55,.64,.93,1.21,.92,.69,0,1.25-.55,1.25-1.24h0"/></clipPath><clipPath id="po"><rect class="aax" x="115.53" y="38.44" width="42.88" height="284.34"/></clipPath><clipPath id="pr"><path class="aax" d="M122.43,321.55c0-.56-.38-1.05-.92-1.19l.02-25.06-5.35-5.28,.03-35.33,6.93-6.83v-15.9l-2.83-2.82,.02-24.54,13.26-13.07,.02-25.37-11.47-11.33,.02-23.05,14.99-14.77v-15.01l-11.97-11.85v-8.47l17.79-17.52v-10.06l13.57-13.36c.49,.28,1.1,.19,1.5-.2,.48-.47,.49-1.25,.02-1.73l-.02-.02c-.49-.48-1.28-.48-1.77,0-.4,.39-.48,1-.2,1.48l-13.76,13.54v10.06l-17.79,17.53v9.01l11.97,11.85v14.46l-15,14.77-.02,23.6,11.47,11.34-.02,24.83-13.26,13.07-.02,25.08,2.84,2.82v15.36l-6.94,6.83-.03,35.88,5.35,5.28-.02,24.79c-.66,.19-1.03,.88-.84,1.53,.19,.66,.88,1.03,1.53,.84,.53-.15,.89-.64,.89-1.18"/></clipPath><clipPath id="pw"><rect class="aax" x="83.79" y="-10.76" width="49.85" height="329.99"/></clipPath><clipPath id="q`"><path class="aax" d="M86.29,318c0-.56-.38-1.04-.92-1.19l.04-48.28,14.62-14.41v-19.36l-11.36-11.25,.02-28.16,12.63-12.45,.02-20.58-4.8-4.74v-18l7.5-7.37v-14.55l-8.04-7.96v-15.33l10.81-10.64,.02-19.41,14.05-13.84,.04-48.24,10.87-10.7c.49,.27,1.1,.2,1.5-.19,.48-.47,.49-1.25,.02-1.73l-.02-.02c-.49-.48-1.28-.48-1.77,0-.39,.39-.48,1-.2,1.48L120.24,1.99l-.04,48.25-14.05,13.83-.02,19.41-10.79,10.64v15.87l8.04,7.96v14.01l-7.49,7.37v18.55l4.79,4.74-.02,20.03-12.63,12.44-.02,28.7,11.38,11.25v18.82l-14.64,14.41-.04,48.55c-.65,.19-1.03,.88-.84,1.53,.19,.65,.88,1.03,1.53,.84,.53-.15,.89-.64,.89-1.18"/></clipPath><clipPath id="qe"><rect class="aax" x="61.51" y="20.04" width="30.12" height="298.91"/></clipPath><clipPath id="qh"><path class="aax" d="M73.96,295.81l-7.41,7.3v13.42c-.68,.18-1.07,.87-.89,1.54,.18,.67,.87,1.06,1.54,.87,.67-.18,1.06-.87,.87-1.54-.12-.43-.45-.76-.87-.87v-13.15l7.42-7.3,.02-30.05,15.79-15.55v-12.32l-9.93-9.82,.03-36.49,11.09-10.92v-16.15l-8.84-8.76,.02-27.26,8.19-8.07,.03-33.35-19.62-19.4,.03-38.56-7.58-7.5c.28-.48,.2-1.09-.2-1.48-.49-.48-1.28-.48-1.77,0-.48,.47-.49,1.25-.02,1.73l.02,.02c.4,.39,1.01,.47,1.5,.2l7.39,7.3-.03,38.56,19.62,19.4-.03,32.8-8.19,8.07-.02,27.8,8.86,8.76v15.6l-11.1,10.93-.03,37.02,9.94,9.83v11.78l-15.8,15.55-.02,30.06Z"/></clipPath><clipPath id="qm"><rect class="aax" x="72.76" y="124.9" width="12.5" height="132.5"/></clipPath><clipPath id="qp"><path class="aax" d="M73.28,255.3c-.48,.48-.49,1.25-.01,1.73h.01c.49,.49,1.28,.49,1.77,.01,.4-.39,.48-1,.2-1.48l8.51-8.39v-8.1l-9.85-9.75,.03-36.22,11.31-11.14v-14.6l-10.93-10.82,.02-29.23c.67-.18,1.06-.87,.87-1.54-.18-.67-.87-1.06-1.54-.87-.67,.18-1.06,.87-.87,1.54,.12,.43,.45,.76,.87,.87l-.02,29.5,10.94,10.82v14.06l-11.32,11.14-.03,36.77,9.86,9.75v7.56l-8.33,8.2c-.49-.27-1.1-.19-1.5,.2"/></clipPath><clipPath id="qu"><rect class="aax" x="65.06" y="210.81" width="9.11" height="36.04"/></clipPath><clipPath id="qx"><path class="aax" d="M73.26,244.43v-7.55l-6.63-6.56v-17.1c.67-.17,1.07-.84,.9-1.5-.14-.55-.64-.93-1.21-.92-.69,0-1.25,.55-1.25,1.23h0c0,.56,.38,1.04,.92,1.18v17.38l6.62,6.56v7.27c-.67,.18-1.06,.87-.88,1.54s.87,1.06,1.54,.87c.67-.18,1.06-.87,.87-1.54-.12-.42-.45-.75-.87-.87"/></clipPath><clipPath id="rc"><rect class="aax" x="16.91" y="-9.83" width="61.23" height="186.43"/></clipPath><clipPath id="rf"><path class="aax" d="M29.98,25.62v16.38l12.89,12.75-.03,31.67,15.85,15.67-.04,55.7,17.16,16.97c-.28,.48-.2,1.09,.2,1.48,.49,.48,1.28,.48,1.77,0,.48-.47,.49-1.25,.02-1.73l-.02-.02c-.4-.39-1.01-.47-1.5-.2l-16.97-16.77,.04-55.7-15.85-15.66,.02-31.67-12.9-12.76V25.35l-12.15-12.02,.02-20.74c.67-.18,1.06-.87,.87-1.54-.18-.67-.87-1.06-1.54-.87-.67,.18-1.06,.87-.87,1.54,.12,.42,.45,.76,.87,.87l-.02,21.01,12.16,12.02Z"/></clipPath><clipPath id="rk"><rect class="aax" x="57.58" y="44.44" width="22.78" height="124.88"/></clipPath><clipPath id="rn"><path class="aax" d="M62.91,121.84l-.03,30.67,15.14,14.96c-.28,.48-.2,1.09,.2,1.48,.49,.48,1.28,.48,1.77,0,.48-.47,.49-1.25,.02-1.73l-.02-.02c-.4-.39-1.01-.48-1.5-.2l-14.94-14.77,.02-30.12,9.32-9.18v-18.38l-13.75-13.61,.03-34.07c.67-.18,1.06-.87,.87-1.54-.18-.67-.87-1.06-1.54-.87-.67,.18-1.06,.87-.87,1.54,.12,.42,.45,.76,.87,.87l-.03,34.35,13.78,13.61v17.84l-9.34,9.18Z"/></clipPath><clipPath id="rs"><rect class="aax" x="31.89" y="8.65" width="35.75" height="102.4"/></clipPath><clipPath id="rv"><path class="aax" d="M41.22,33.09l10.51,10.38-.03,41.86,14.37,14.21v9.09c-.67,.18-1.06,.87-.88,1.54,.18,.66,.87,1.05,1.54,.87s1.05-.87,.87-1.54c-.12-.42-.45-.75-.87-.87v-9.37l-14.37-14.2,.03-41.86-10.5-10.38v-14.75l-7.66-7.58c.28-.48,.2-1.09-.2-1.48-.49-.48-1.28-.48-1.77,0-.48,.47-.49,1.25-.02,1.73l.02,.02c.4,.39,1.01,.47,1.5,.2l7.48,7.39-.02,14.74Z"/></clipPath><clipPath id="sa"><rect class="aax" x="66.12" y="39.53" width="19.25" height="105.21"/></clipPath><clipPath id="sd"><path class="aax" d="M67.04,41.95l-.02,29.75,17.69,17.49-.02,26.3-7.39,7.27v19.57c-.68,.18-1.07,.87-.89,1.54,.18,.67,.87,1.06,1.54,.87,.67-.18,1.06-.87,.87-1.54-.12-.42-.45-.76-.87-.87l.02-19.29,7.38-7.28,.02-26.84-17.69-17.49,.02-29.48c.67-.18,1.06-.87,.87-1.54-.18-.67-.87-1.06-1.54-.87s-1.06,.87-.87,1.54c.12,.42,.45,.76,.87,.87"/></clipPath><clipPath id="si"><rect class="aax" x="46.69" y="8.02" width="32.96" height="142.35"/></clipPath><clipPath id="sl"><path class="aax" d="M46.69,9.26c0,.56,.38,1.04,.92,1.19v12l15.38,15.21-.03,38.77,16.03,15.85-.02,21.21-9.6,9.46-.02,25.02c-.67,.18-1.06,.87-.87,1.54,.18,.67,.87,1.06,1.54,.87s1.06-.87,.87-1.54c-.12-.42-.45-.75-.87-.87l.02-24.75,9.6-9.46,.02-21.75-16.03-15.85,.03-38.77-15.39-15.21V10.45c.66-.19,1.04-.88,.85-1.53s-.88-1.03-1.53-.84c-.53,.15-.89,.64-.89,1.19"/></clipPath><clipPath id="sq"><rect class="aax" x="5.84" y="15.42" width="49.97" height="142.23"/></clipPath><clipPath id="st"><path class="aax" d="M20.83,51.73l13.36,13.21-.02,20.57,20.09,19.85-.04,49.86c-.67,.18-1.06,.87-.87,1.54,.18,.67,.87,1.06,1.54,.87s1.06-.87,.87-1.54c-.12-.42-.45-.76-.87-.87l.04-50.14-20.09-19.85,.02-20.57-13.36-13.2,.02-21.02-13.34-13.18c.28-.48,.19-1.09-.2-1.48-.49-.48-1.28-.48-1.77,0-.48,.47-.49,1.25-.02,1.73l.02,.02c.4,.39,1.01,.47,1.5,.2l13.14,12.99-.02,21.02Z"/></clipPath><clipPath id="sy"><rect class="aax" x="110.01" y="2.26" width="20.79" height="278.11"/></clipPath><clipPath id="tb"><path class="aax" d="M112.51,279.13c0-.56-.38-1.04-.91-1.18l.02-27.66,5.72-5.64,.03-43.14,11.17-11,.02-20.93-13.96-13.8,.02-30.35,12.57-12.39v-13.35l-9.19-9.1v-13.21l11.83-11.65,.05-61.05c.66-.18,1.05-.87,.87-1.54-.18-.66-.87-1.05-1.54-.87s-1.05,.87-.87,1.54c.12,.42,.45,.75,.87,.87l-.05,60.78-11.82,11.64v13.75l9.19,9.1v12.81l-12.58,12.38-.02,30.9,13.96,13.8-.02,20.39-11.17,11-.04,43.14-5.72,5.64-.02,27.93c-.65,.19-1.03,.88-.84,1.53,.19,.65,.88,1.03,1.53,.84,.53-.15,.89-.64,.89-1.19"/></clipPath><clipPath id="tg"><rect class="aax" x="95.11" y="4.08" width="32.02" height="245.34"/></clipPath><clipPath id="tj"><path class="aax" d="M103.49,146.72v-5.65l6.14-6.05,.02-22.98-5.6-5.53v-12.4l6.62-6.51,.02-20.06,15.49-15.26,.04-45.79c.67-.18,1.06-.87,.88-1.54-.18-.67-.87-1.06-1.54-.88s-1.06,.87-.88,1.54c.12,.43,.45,.76,.88,.88l-.04,45.52-15.49,15.26-.02,20.06-6.61,6.51v12.95l5.59,5.53-.02,22.43-6.14,6.05v6.19l5.07,5.01-.02,30.85-12.74,12.55-.02,22.48,9.21,9.11-.02,20.01c-.66,.18-1.05,.87-.87,1.54,.18,.66,.87,1.05,1.54,.87,.66-.18,1.05-.87,.87-1.54-.12-.42-.45-.75-.87-.87l.02-20.28-9.21-9.11,.02-21.93,12.74-12.55,.02-31.39-5.08-5.01Z"/></clipPath><clipPath id="to"><rect class="aax" x="101.94" y="167.16" width="17.2" height="78.26"/></clipPath><clipPath id="tr"><path class="aax" d="M118.23,169.58c.54-.14,.91-.63,.92-1.18-.03-.69-.61-1.23-1.3-1.2-.65,.03-1.17,.55-1.2,1.2,0,.56,.38,1.04,.92,1.18v10.1l-15.61,15.37v19.39l6.43,6.37-.02,22.2c-.67,.18-1.06,.87-.87,1.54,.18,.67,.87,1.06,1.54,.87,.67-.18,1.06-.87,.87-1.54-.12-.42-.45-.75-.87-.87l.02-22.47-6.45-6.37v-18.84l15.62-15.37v-10.37Z"/></clipPath><clipPath id="tw"><rect class="aax" x="106.55" y="184.82" width="14.55" height="56.6"/></clipPath><clipPath id="u`"><path class="aax" d="M120.74,186.93c.48-.48,.49-1.26,0-1.74h0c-.49-.49-1.28-.49-1.77,0-.39,.39-.48,1-.2,1.48l-12.2,12.03v12.65l6.26,6.19-.02,21.47c-.67,.18-1.06,.87-.87,1.54,.18,.67,.87,1.06,1.54,.87,.67-.18,1.06-.87,.87-1.54-.12-.42-.45-.76-.87-.87l.02-21.74-6.26-6.19v-12.1l12.01-11.84c.49,.27,1.1,.19,1.5-.19"/></clipPath><clipPath id="ue"><rect class="aax" x="66.2" y="11.96" width="31.57" height="74.01"/></clipPath><clipPath id="uh"><path class="aax" d="M80.99,26.12l-12.46-12.32c.28-.48,.19-1.09-.2-1.48-.49-.48-1.28-.48-1.77,0-.48,.47-.49,1.25-.01,1.73h.01c.4,.41,1.01,.49,1.5,.21l12.27,12.13-.03,42.77,15.13,14.96c-.28,.48-.2,1.09,.2,1.48,.49,.48,1.28,.48,1.77,0,.48-.48,.49-1.25,.01-1.74h-.01c-.4-.41-1.01-.49-1.5-.21l-14.94-14.77,.03-42.77Z"/></clipPath><clipPath id="um"><rect class="aax" x="99.47" y="-21.49" width="26.32" height="103.09"/></clipPath><clipPath id="up"><path class="aax" d="M111.71-8.08V4.85l-6.1,6v13.74l6.99,6.92v17.2l-12.2,12v18.47c-.68,.18-1.07,.87-.89,1.54s.87,1.06,1.54,.87,1.06-.87,.87-1.54c-.12-.42-.45-.75-.87-.87v-18.19l12.2-12V31.24l-6.99-6.92V11.11l6.1-6V-7.81l11.55-11.38c.49,.27,1.1,.2,1.5-.19,.48-.48,.49-1.25,.01-1.74h-.01c-.49-.49-1.28-.49-1.77-.01-.4,.39-.48,1-.2,1.48l-11.74,11.57Z"/></clipPath><clipPath id="uu"><rect class="aax" x="80.29" y="2.44" width="17.02" height="72.61"/></clipPath><clipPath id="ux"><path class="aax" d="M88.35,50.42l8.95-8.82v-10.74l-8.42-8.33V10.47l-6.26-6.2c.28-.48,.2-1.09-.2-1.48-.49-.48-1.28-.48-1.77,0-.48,.47-.49,1.25-.01,1.73h.01c.4,.41,1.01,.49,1.5,.21l6.07,6v12.06l8.42,8.34v10.19l-8.96,8.82v16.47l6.65,6.58c-.28,.48-.2,1.09,.2,1.48,.49,.48,1.28,.48,1.77,0,.48-.47,.49-1.25,.02-1.73l-.02-.02c-.4-.39-1.01-.47-1.5-.2l-6.46-6.39v-15.92Z"/></clipPath><clipPath id="vc"><rect class="aax" x="68.69" y=".04" width="17.08" height="36.05"/></clipPath><clipPath id="vf"><path class="aax" d="M84.19,33.67c-.67,.18-1.06,.87-.87,1.54s.87,1.06,1.54,.87,1.06-.87,.87-1.54c-.12-.42-.45-.76-.87-.87V15.57L71.03,1.88c.28-.48,.2-1.09-.2-1.48-.49-.48-1.28-.48-1.77,0-.48,.47-.49,1.24-.02,1.72l.02,.02c.4,.4,1.01,.48,1.5,.2l13.65,13.49-.02,17.83Z"/></clipPath><clipPath id="vk"><rect class="aax" x="74.1" y="-14.75" width="27.18" height="82.88"/></clipPath><clipPath id="vn"><path class="aax" d="M94.27,5.65v13.02l6.35,6.28-.02,25.39-5.35,5.28v10.09c-.67,.18-1.07,.87-.88,1.54,.18,.67,.87,1.06,1.54,.87s1.06-.87,.87-1.54c-.12-.42-.45-.76-.87-.87v-9.82l5.36-5.27,.02-25.94-6.36-6.29V5.38l-18.49-18.28c.28-.48,.2-1.09-.2-1.48-.49-.49-1.28-.49-1.77,0-.48,.47-.49,1.25-.02,1.73l.02,.02c.4,.39,1.01,.47,1.5,.2L94.27,5.65Z"/></clipPath><clipPath id="vs"><rect class="aax" x="100.38" y="33.19" width="8.46" height="23.29"/></clipPath><clipPath id="vv"><path class="aax" d="M100.74,54.38c-.48,.47-.49,1.24-.02,1.73l.02,.02c.49,.48,1.28,.48,1.77,0,.4-.39,.48-1,.2-1.48l5.19-5.11v-13.92c.55-.14,.93-.63,.93-1.18-.04-.69-.63-1.22-1.32-1.18-.64,.04-1.14,.54-1.18,1.18,0,.56,.38,1.04,.92,1.18v13.64l-5.01,4.93c-.49-.28-1.1-.19-1.5,.2"/></clipPath><clipPath id="wa"><rect class="aax" x="66.26" y="61.15" width="59.4" height="284.75"/></clipPath><clipPath id="wd"><path class="aax" d="M103.34,266.28l.02-23.06,.04-.04-.04-.04,.04-53.99-11.53-11.39,.03-35.25,2.88-2.84c.67,.38,1.51,.27,2.06-.27,.66-.65,.67-1.72,.02-2.38l-.02-.02c-.67-.66-1.76-.66-2.43,0-.54,.54-.66,1.37-.28,2.03l-3.15,3.11-.03,34.72-6.51-6.43c.38-.66,.27-1.5-.27-2.03-.67-.66-1.76-.66-2.43,0-.66,.65-.67,1.71-.03,2.37l.03,.03c.55,.54,1.39,.65,2.06,.27l18.68,18.46-.02,29.94-8.2-8.1v-12.46c.93-.25,1.46-1.2,1.21-2.11-.25-.92-1.2-1.45-2.11-1.2-.92,.25-1.45,1.2-1.2,2.11,.16,.58,.62,1.04,1.2,1.2v12.84l9.1,9.01-.02,21.49-20.84-20.6,.03-38.01-13.29-13.15v-13.21l12.03-11.84v-18.11h.02l6.37-6.27,.02-24.16c.92-.25,1.45-1.2,1.2-2.12s-1.2-1.45-2.12-1.2c-.92,.25-1.45,1.2-1.2,2.12,.16,.58,.62,1.04,1.2,1.2l-.02,23.79-5.46,5.38,.03-36.62c.92-.25,1.45-1.2,1.2-2.11-.25-.92-1.2-1.45-2.11-1.2s-1.45,1.2-1.2,2.11c.16,.58,.62,1.04,1.2,1.2l-.04,55.61-11.1,10.93,.07-91.53c.91-.25,1.45-1.2,1.2-2.11-.25-.91-1.2-1.45-2.11-1.2s-1.45,1.2-1.2,2.11c.16,.58,.62,1.04,1.2,1.2l-.08,106.39,13.29,13.14-.03,38.01,11.71,11.58v11.93l-4.56,4.49c-.67-.38-1.51-.27-2.06,.27-.66,.65-.68,1.71-.03,2.37l.03,.03c.67,.66,1.76,.66,2.43,0,.54-.53,.66-1.37,.28-2.03l4.83-4.75v-11.4l9.14,9.02-.02,23.14,16.17,15.99v15.02l4.91,4.87-.03,40.05c-.92,.25-1.45,1.2-1.2,2.11s1.2,1.45,2.11,1.2c.92-.25,1.45-1.2,1.2-2.11-.16-.58-.62-1.04-1.2-1.2l.03-40.42-4.93-4.87v-15.02l-16.17-15.99Z"/></clipPath><clipPath id="wi"><rect class="aax" x="83.87" y="9.39" width="60.43" height="282.08"/></clipPath><clipPath id="wl"><path class="aax" d="M93.46,81.19l-7.45-7.36,.03-42.39c.92-.25,1.45-1.2,1.2-2.11-.25-.92-1.2-1.45-2.11-1.2-.92,.25-1.45,1.2-1.2,2.11,.16,.58,.62,1.04,1.2,1.2l-.03,42.77,8.31,8.22,.05-.05-.03,38.3,15.8,15.62-.02,20.93-7.72,7.61c-.67-.38-1.51-.27-2.06,.27-.66,.65-.68,1.71-.03,2.37l.03,.03c.68,.66,1.76,.66,2.43,0,.54-.53,.66-1.37,.28-2.03l7.99-7.88,.02-20.4,12.84,12.7-.06,76.75,20.45,20.21-.04,44.62h.91l.04-44.99-20.46-20.21,.03-34.54,.02,.02,8.55-8.43,.04-44.81-28.26-27.94v-9.91l10.25-10.09,.05-64.82,8.94-8.8c.67,.38,1.51,.27,2.06-.27,.66-.65,.67-1.72,.02-2.38l-.02-.02c-.68-.66-1.75-.66-2.43,0-.54,.54-.66,1.37-.28,2.03l-9.2,9.07-.05,64.82-9.33,9.19,.02-27.54c.92-.25,1.45-1.2,1.2-2.12s-1.2-1.45-2.12-1.2c-.92,.25-1.45,1.2-1.2,2.12,.16,.58,.62,1.04,1.2,1.2l-.03,39.1,28.26,27.93-.04,44.07-7.65,7.54,.03-40.96-29.56-29.22,.09-107.59c.9-.23,1.45-1.15,1.21-2.06-.2-.76-.89-1.28-1.67-1.27-.93-.02-1.7,.72-1.72,1.65-.02,.78,.51,1.47,1.26,1.67l-.06,68.48Z"/></clipPath><clipPath id="wq"><rect class="aax" x="28.5" y="13.7" width="90.99" height="335.19"/></clipPath><clipPath id="wt"><path class="aax" d="M110.98,348.4c.54-.53,.66-1.37,.28-2.03l8.22-8.1v-17.81l-9.29-9.19v-17.08l-15.42-15.25v-13.2c.93-.25,1.46-1.2,1.21-2.11s-1.2-1.45-2.11-1.2c-.92,.25-1.45,1.2-1.2,2.11,.16,.58,.62,1.04,1.2,1.2v13.57l15.42,15.25v15.8l-24.94-24.64,.02-25.34-10.78-10.66,.03-38.38-8.09-7.99,.02-21.94-2.82-2.79c.38-.66,.27-1.5-.27-2.03-.67-.66-1.76-.66-2.43,0-.66,.65-.67,1.71-.03,2.37l.03,.03c.55,.54,1.39,.65,2.06,.27l2.55,2.52v11.67l-15.73-15.55v-11.07l9.72-9.56v-18.97c.93-.25,1.47-1.2,1.21-2.11s-1.2-1.45-2.11-1.2c-.92,.25-1.45,1.2-1.2,2.11,.16,.58,.62,1.04,1.2,1.2v18.6l-8.81,8.66,.02-29.71,9.96-9.81,.06-70.97,5.44-5.37c.67,.38,1.51,.27,2.06-.27,.66-.65,.68-1.71,.03-2.37l-.03-.03c-.67-.66-1.76-.66-2.43,0-.54,.54-.66,1.37-.27,2.03l-5.71,5.63-.04,54.03-15.03-14.85,.05-66.48-11.31-11.17c.38-.66,.27-1.5-.27-2.03-.67-.67-1.76-.67-2.43,0-.66,.65-.67,1.71-.02,2.38l.02,.02c.55,.54,1.39,.65,2.06,.27l11.04,10.91-.05,66.48,15.94,15.76v15.66l-9.97,9.81-.03,42.8,16.64,16.44v9l8.08,7.99-.03,37.1-15.63-15.46,.03-33.76c.91-.25,1.45-1.2,1.2-2.11-.25-.91-1.2-1.45-2.11-1.2s-1.45,1.2-1.2,2.11c.16,.58,.62,1.04,1.2,1.2l-.03,34.14,27.33,27.02-.02,25.34,35.14,34.73v17.06l-7.97,7.84c-.67-.38-1.51-.27-2.06,.27-.66,.65-.68,1.71-.03,2.37l.03,.03c.67,.66,1.76,.66,2.43,0"/></clipPath></defs><g id="b" transform="translate(258.523 48.278)"><g id="c" transform="translate(-50.523 21.177)"><path id="d" class="xi" d="M122.9,5c2.5-1.42,4.53-.28,4.54,2.56l.1,46.31c-.18,3.15-1.86,6.01-4.52,7.71l-46.9,26.67c-2.5,1.42-4.53,.28-4.54-2.56l-.1-46.31c.18-3.15,1.86-6.01,4.52-7.71L122.9,5Z"/><path id="e" class="xi" d="M122.85,67.92c2.5-1.42,4.53-.28,4.54,2.56l.1,46.31c-.18,3.15-1.86,6.01-4.52,7.71l-46.9,26.67c-2.5,1.42-4.53,.28-4.54-2.56l-.1-46.31c.18-3.15,1.86-6.01,4.52-7.71l46.9-26.67Z"/><path id="f" class="xi" d="M13.59,4.92c-2.5-1.42-4.53-.29-4.54,2.55l-.17,46.31c.17,3.15,1.85,6.02,4.5,7.71l46.85,26.74c2.5,1.42,4.53,.29,4.54-2.55l.17-46.31c-.17-3.15-1.85-6.02-4.5-7.71L13.59,4.92Z"/><path id="g" class="xi" d="M13.54,67.84c-2.5-1.42-4.53-.29-4.54,2.55l-.17,46.31c.17,3.15,1.85,6.02,4.5,7.71l46.86,26.74c2.5,1.42,4.53,.29,4.54-2.55l.17-46.31c-.17-3.15-1.85-6.02-4.5-7.71L13.54,67.84Z"/><path id="h" class="xi" d="M13.49,130.76c-2.5-1.42-4.53-.29-4.54,2.55,0,0-.13,34.73-.17,46.31,.17,3.15,1.85,6.02,4.5,7.71l46.85,26.74c2.5,1.42,4.53,.29,4.54-2.55l.18-46.31c-.17-3.15-1.85-6.02-4.5-7.71l-46.86-26.74Z"/><path id="i" class="xi" d="M127.34,133.4c0-2.84-2.04-3.98-4.54-2.56l-46.9,26.67c-2.66,1.69-4.34,4.56-4.52,7.71l.1,46.31c0,.28,.03,.57,.07,.85l-.03,14.47c.03,1.71,1.44,3.07,3.15,3.04,1.66-.03,3.01-1.37,3.04-3.04l.03-13.75,45.18-25.69c2.66-1.69,4.34-4.56,4.52-7.71l-.1-46.31Z"/><g id="j" class="abh" transform="translate(62.61 0.088)"><g id="k"><g id="l" transform="translate(0.101)"><g class="a`x"><g id="n"><g id="o" transform="translate(-66.931 41.015)"><g id="p"><g class="abw"><g id="r"><g id="s" transform="translate(0 0)"><g class="aam"><g id="u"><rect id="v" class="xi" x="4.33" y="45.26" width="65.18" height="275.34"/></g></g></g></g></g></g></g><g id="w" transform="translate(44.034 34.051)"><g id="x"><g class="abx"><g id="a`"><g id="aa" transform="translate(0 0)"><g class="a`m"><g id="ac"><rect id="ad" class="xi" x="115.41" y="38.31" width="43.23" height="284.5"/></g></g></g></g></g></g></g><g id="ae" transform="translate(12.297 -15.146)"><g id="af"><g class="yj"><g id="ah"><g id="ai" transform="translate(0 0)"><g class="a`a"><g id="ak"><rect id="al" class="xi" x="83.66" y="-10.89" width="50.23" height="330.15"/></g></g></g></g></g></g></g><g id="am" transform="translate(-9.982 15.654)"><g id="an"><g class="abc"><g id="ap"><g id="aq" transform="translate(0 0)"><g class="ye"><g id="as"><rect id="at" class="xi" x="61.27" y="19.91" width="30.48" height="299.05"/></g></g></g></g></g></g></g><g id="au" transform="translate(1.267 120.51)"><g id="av" transform="translate(0 0)"><g class="a`r"><g id="ax"><g id="ay" transform="translate(0 0)"><g class="aba"><g id="ba"><rect id="bb" class="xi" x="72.71" y="124.9" width="12.61" height="132.63"/></g></g></g></g></g></g></g><g id="bc" transform="translate(-6.433 206.415)"><g id="bd"><g class="yn"><g id="bf"><g id="bg" transform="translate(0 0)"><g class="wx"><g id="bi"><rect id="bj" class="xi" x="65.04" y="210.8" width="9.15" height="36.05"/></g></g></g></g></g></g></g><g id="bk" transform="translate(-54.579 -14.225)"><g id="bl" transform="translate(0)"><g class="xc"><g id="bn"><g id="bo" transform="translate(0 0)"><g class="a`f"><g id="bq"><rect id="br" class="xi" x="16.84" y="-9.86" width="61.5" height="186.6"/></g></g></g></g></g></g></g><g id="bs" transform="translate(-13.907 40.046)"><g id="bt"><g class="aap"><g id="bv"><g id="bw" transform="translate(0 0)"><g class="aao"><g id="by"><rect id="c`" class="xi" x="57.53" y="44.43" width="23" height="125.02"/></g></g></g></g></g></g></g><g id="ca" transform="translate(-39.599 4.263)"><g id="cb"><g class="xp"><g id="cd"><g id="ce" transform="translate(0 0)"><g class="aak"><g id="cg"><rect id="ch" class="xi" x="31.73" y="8.52" width="35.95" height="102.55"/></g></g></g></g></g></g></g><g id="ci" transform="translate(-5.373 35.14)"><g id="cj"><g class="acs"><g id="cl"><g id="cm" transform="translate(0 0)"><g class="aca"><g id="co"><rect id="cp" class="xi" x="66.08" y="39.52" width="19.33" height="105.23"/></g></g></g></g></g></g></g><g id="cq" transform="translate(-24.805 3.633)"><g id="cr"><g class="ys"><g id="ct"><g id="cu" transform="translate(0 0)"><g class="a`q"><g id="cw"><rect id="cx" class="xi" x="46.63" y="8.01" width="33.08" height="142.38"/></g></g></g></g></g></g></g><g id="cy" transform="translate(-65.656 11.025)"><g id="d`" transform="translate(0)"><g class="aab"><g id="db"><g id="dc" transform="translate(0 0)"><g class="yo"><g id="de"><rect id="df" class="xi" x="5.66" y="15.28" width="50.2" height="142.39"/></g></g></g></g></g></g></g><g id="dg" transform="translate(38.515 -2.129)"><g id="dh"><g class="wy"><g id="dj"><g id="dk" transform="translate(0 0)"><g class="a`w"><g id="dm"><rect id="dn" class="xi" x="109.9" y="2.25" width="21.01" height="278.13"/></g></g></g></g></g></g></g><g id="do" transform="translate(23.623 -0.307)"><g id="dp"><g class="xk"><g id="dr"><g id="ds" transform="translate(0 0)"><g class="xg"><g id="du"><rect id="dv" class="xi" x="95.02" y="4.07" width="32.21" height="245.37"/></g></g></g></g></g></g></g><g id="dw" transform="translate(30.449 162.768)"><g id="dx"><g class="aau"><g id="e`"><g id="ea" transform="translate(0 0)"><g class="abd"><g id="ec"><rect id="ed" class="xi" x="101.91" y="167.15" width="17.27" height="78.27"/></g></g></g></g></g></g></g><g id="ee" transform="translate(35.063 180.428)"><g id="ef"><g class="a`u"><g id="eh"><g id="ei" transform="translate(0 0)"><g class="acd"><g id="ek"><rect id="el" class="xi" x="106.53" y="184.69" width="14.72" height="56.74"/></g></g></g></g></g></g></g><g id="em" transform="translate(-5.296 7.567)"><g id="en"><g class="a`b"><g id="ep"><g id="eq" transform="translate(0 0)"><g class="abj"><g id="es"><rect id="et" class="xi" x="66.04" y="11.83" width="31.87" height="74.27"/></g></g></g></g></g></g></g><g id="eu" transform="translate(27.978 -25.879)"><g id="ev"><g class="a`s"><g id="ex"><g id="ey" transform="translate(0 0)"><g class="xa"><g id="fa"><rect id="fb" class="xi" x="99.43" y="-21.62" width="26.52" height="103.23"/></g></g></g></g></g></g></g><g id="fc" transform="translate(8.797 -1.955)"><g id="fd"><g class="abb"><g id="ff"><g id="fg" transform="translate(0 0)"><g class="a`d"><g id="fi"><rect id="fj" class="xi" x="80.14" y="2.31" width="17.2" height="72.86"/></g></g></g></g></g></g></g><g id="fk" transform="translate(-2.798 -4.354)"><g id="fl"><g class="xb"><g id="fn"><g id="fo" transform="translate(0 0)"><g class="aac"><g id="fq"><rect id="fr" class="xi" x="68.56" y="-.09" width="17.24" height="36.18"/></g></g></g></g></g></g></g><g id="fs" transform="translate(2.609 -19.14)"><g id="ft"><g class="aci"><g id="fv"><g id="fw" transform="translate(0 0)"><g class="ya"><g id="fy"><rect id="g`" class="xi" x="73.95" y="-14.88" width="27.37" height="83.02"/></g></g></g></g></g></g></g><g id="ga" transform="translate(28.884 28.799)"><g id="gb"><g class="aaq"><g id="gd"><g id="ge" transform="translate(0 0)"><g class="abl"><g id="gg"><rect id="gh" class="xi" x="100.24" y="33.19" width="8.6" height="23.42"/></g></g></g></g></g></g></g><g id="gi" transform="translate(-5.235 56.759)"><g id="gj"><g class="abo"><g id="gl"><g id="gm" transform="translate(0 0)"><g class="a`p"><g id="go"><rect id="gp" class="xi" x="66.14" y="61.13" width="59.63" height="284.8"/></g></g></g></g></g></g></g><g id="gq" transform="translate(12.374 4.997)"><g id="gr"><g class="xy"><g id="gt"><g id="gu" transform="translate(0 0)"><g class="abp"><g id="gw"><rect id="gx" class="xi" x="83.75" y="9.36" width="60.65" height="282.13"/></g></g></g></g></g></g></g><g id="gy" transform="translate(-42.987 9.313)"><g id="h`" transform="translate(0)"><g class="yb"><g id="hb"><g id="hc" transform="translate(0 0)"><g class="xv"><g id="he"><rect id="hf" class="xi" x="28.2" y="13.5" width="91.42" height="335.6"/></g></g></g></g></g></g></g></g></g></g><g id="hg" transform="translate(0.051 62.919)"><g class="yq"><g id="hi"><g id="hj" transform="translate(-66.88 -21.904)"><g id="hk"><g class="aal"><g id="hm"><g id="hn" transform="translate(0 0)"><g class="a`l"><g id="hp"><rect id="hq" class="xi" x="4.33" y="45.26" width="65.18" height="275.34"/></g></g></g></g></g></g></g><g id="hr" transform="translate(44.085 -28.869)"><g id="hs"><g class="xt"><g id="hu"><g id="hv" transform="translate(0 0)"><g class="a`o"><g id="hx"><rect id="hy" class="xi" x="115.41" y="38.3" width="43.23" height="284.5"/></g></g></g></g></g></g></g><g id="i`" transform="translate(12.348 -78.066)"><g id="ia" transform="translate(0 0)"><g class="yx"><g id="ic"><g id="id" transform="translate(0 0)"><g class="a`t"><g id="if"><rect id="ig" class="xi" x="83.66" y="-10.9" width="50.23" height="330.15"/></g></g></g></g></g></g></g><g id="ih" transform="translate(-9.931 -47.266)"><g id="ii"><g class="xr"><g id="ik"><g id="il" transform="translate(0 0)"><g class="abt"><g id="in"><rect id="io" class="xi" x="61.27" y="19.91" width="30.48" height="299.05"/></g></g></g></g></g></g></g><g id="ip" transform="translate(1.317 57.59)"><g id="iq"><g class="xh"><g id="is"><g id="it" transform="translate(0 0)"><g class="ack"><g id="iv"><rect id="iw" class="xi" x="72.71" y="124.89" width="12.61" height="132.63"/></g></g></g></g></g></g></g><g id="ix" transform="translate(-6.382 143.495)"><g id="iy"><g class="acc"><g id="ja"><g id="jb" transform="translate(0 0)"><g class="ach"><g id="jd"><rect id="je" class="xi" x="65.04" y="210.8" width="9.15" height="36.05"/></g></g></g></g></g></g></g><g id="jf" transform="translate(-54.529 -77.144)"><g id="jg" transform="translate(0)"><g class="a`g"><g id="ji"><g id="jj" transform="translate(0 0)"><g class="abv"><g id="jl"><rect id="jm" class="xi" x="16.84" y="-9.86" width="61.5" height="186.6"/></g></g></g></g></g></g></g><g id="jn" transform="translate(-13.857 -22.873)"><g id="jo"><g class="acv"><g id="jq"><g id="jr" transform="translate(0 0)"><g class="aah"><g id="jt"><rect id="ju" class="xi" x="57.53" y="44.43" width="23" height="125.02"/></g></g></g></g></g></g></g><g id="jv" transform="translate(-39.548 -58.657)"><g id="jw" transform="translate(0 0)"><g class="xf"><g id="jy"><g id="k`" transform="translate(0 0)"><g class="yw"><g id="kb"><rect id="kc" class="xi" x="31.73" y="8.52" width="35.95" height="102.55"/></g></g></g></g></g></g></g><g id="kd" transform="translate(-5.323 -27.78)"><g id="ke"><g class="abq"><g id="kg"><g id="kh" transform="translate(0 0)"><g class="yh"><g id="kj"><rect id="kk" class="xi" x="66.08" y="39.52" width="19.33" height="105.23"/></g></g></g></g></g></g></g><g id="kl" transform="translate(-24.755 -59.287)"><g id="km" transform="translate(0 0)"><g class="xx"><g id="ko"><g id="kp" transform="translate(0 0)"><g class="yy"><g id="kr"><rect id="ks" class="xi" x="46.63" y="8.01" width="33.08" height="142.38"/></g></g></g></g></g></g></g><g id="kt" transform="translate(-65.606 -51.895)"><g id="ku" transform="translate(0 0)"><g class="a`v"><g id="kw"><g id="kx" transform="translate(0 0)"><g class="y`"><g id="l`"><rect id="la" class="xi" x="5.66" y="15.28" width="50.2" height="142.39"/></g></g></g></g></g></g></g><g id="lb" transform="translate(38.566 -65.049)"><g id="lc"><g class="acq"><g id="le"><g id="lf" transform="translate(0 0)"><g class="aat"><g id="lh"><rect id="li" class="xi" x="109.9" y="2.25" width="21.01" height="278.13"/></g></g></g></g></g></g></g><g id="lj" transform="translate(23.673 -63.227)"><g id="lk" transform="translate(0 0)"><g class="xo"><g id="lm"><g id="ln" transform="translate(0 0)"><g class="yf"><g id="lp"><rect id="lq" class="xi" x="95.02" y="4.07" width="32.21" height="245.37"/></g></g></g></g></g></g></g><g id="lr" transform="translate(30.5 99.849)"><g id="ls"><g class="a``"><g id="lu"><g id="lv" transform="translate(0 0)"><g class="aai"><g id="lx"><rect id="ly" class="xi" x="101.91" y="167.15" width="17.27" height="78.27"/></g></g></g></g></g></g></g><g id="m`" transform="translate(35.114 117.509)"><g id="ma"><g class="aaf"><g id="mc"><g id="md" transform="translate(0 0)"><g class="xs"><g id="mf"><rect id="mg" class="xi" x="106.53" y="184.69" width="14.72" height="56.74"/></g></g></g></g></g></g></g><g id="mh" transform="translate(-5.245 -55.353)"><g id="mi" transform="translate(0 0)"><g class="abm"><g id="mk"><g id="ml" transform="translate(0 0)"><g class="yc"><g id="mn"><rect id="mo" class="xi" x="66.04" y="11.82" width="31.87" height="74.27"/></g></g></g></g></g></g></g><g id="mp" transform="translate(28.028 -88.799)"><g id="mq"><g class="xq"><g id="ms"><g id="mt" transform="translate(0 0)"><g class="xd"><g id="mv"><rect id="mw" class="xi" x="99.43" y="-21.62" width="26.52" height="103.23"/></g></g></g></g></g></g></g><g id="mx" transform="translate(8.848 -64.875)"><g id="my" transform="translate(0 0)"><g class="xj"><g id="na"><g id="nb" transform="translate(0 0)"><g class="a`y"><g id="nd"><rect id="ne" class="xi" x="80.14" y="2.31" width="17.2" height="72.86"/></g></g></g></g></g></g></g><g id="nf" transform="translate(-2.748 -67.273)"><g id="ng" transform="translate(0 0)"><g class="acj"><g id="ni"><g id="nj" transform="translate(0 0)"><g class="aar"><g id="nl"><rect id="nm" class="xi" x="68.56" y="-.09" width="17.24" height="36.18"/></g></g></g></g></g></g></g><g id="nn" transform="translate(2.66 -82.059)"><g id="no" transform="translate(0 0)"><g class="ace"><g id="nq"><g id="nr" transform="translate(0 0)"><g class="abi"><g id="nt"><rect id="nu" class="xi" x="73.95" y="-14.88" width="27.37" height="83.02"/></g></g></g></g></g></g></g><g id="nv" transform="translate(28.934 -34.121)"><g id="nw"><g class="acg"><g id="ny"><g id="o`" transform="translate(0 0)"><g class="aaj"><g id="ob"><rect id="oc" class="xi" x="100.24" y="33.19" width="8.6" height="23.42"/></g></g></g></g></g></g></g><g id="od" transform="translate(-5.184 -6.161)"><g id="oe"><g class="acf"><g id="og"><g id="oh" transform="translate(0 0)"><g class="yv"><g id="oj"><rect id="ok" class="xi" x="66.14" y="61.13" width="59.63" height="284.8"/></g></g></g></g></g></g></g><g id="ol" transform="translate(12.425 -57.923)"><g id="om" transform="translate(0 0)"><g class="yt"><g id="oo"><g id="op" transform="translate(0 0)"><g class="yi"><g id="or"><rect id="os" class="xi" x="83.75" y="9.36" width="60.65" height="282.13"/></g></g></g></g></g></g></g><g id="ot" transform="translate(-42.937 -53.607)"><g id="ou" transform="translate(0 0)"><g class="xl"><g id="ow"><g id="ox" transform="translate(0 0)"><g class="yl"><g id="p`"><rect id="pa" class="xi" x="28.2" y="13.5" width="91.42" height="335.6"/></g></g></g></g></g></g></g></g></g></g><g id="pb" transform="translate(0 125.839)"><g class="a`k"><g id="pd"><g id="pe" transform="translate(-66.83 -84.824)"><g id="pf" transform="translate(0 0)"><g class="abu"><g id="ph"><g id="pi" transform="translate(0 0)"><g class="yg"><g id="pk"><rect id="pl" class="xi" x="4.33" y="45.26" width="65.18" height="275.34"/></g></g></g></g></g></g></g><g id="pm" transform="translate(44.135 -91.789)"><g id="pn"><g class="ym"><g id="pp"><g id="pq" transform="translate(0 0)"><g class="abr"><g id="ps"><rect id="pt" class="xi" x="115.41" y="38.3" width="43.23" height="284.5"/></g></g></g></g></g></g></g><g id="pu" transform="translate(12.398 -140.986)"><g id="pv" transform="translate(0 0)"><g class="aaw"><g id="px"><g id="py" transform="translate(0 0)"><g class="aay"><g id="qa"><rect id="qb" class="xi" x="83.66" y="-10.9" width="50.23" height="330.15"/></g></g></g></g></g></g></g><g id="qc" transform="translate(-9.881 -110.186)"><g id="qd" transform="translate(0 0)"><g class="a`c"><g id="qf"><g id="qg" transform="translate(0 0)"><g class="aae"><g id="qi"><rect id="qj" class="xi" x="61.27" y="19.91" width="30.48" height="299.05"/></g></g></g></g></g></g></g><g id="qk" transform="translate(1.368 -5.33)"><g id="ql"><g class="acl"><g id="qn"><g id="qo" transform="translate(0 0)"><g class="a`j"><g id="qq"><rect id="qr" class="xi" x="72.71" y="124.89" width="12.61" height="132.63"/></g></g></g></g></g></g></g><g id="qs" transform="translate(-6.332 80.575)"><g id="qt"><g class="aby"><g id="qv"><g id="qw" transform="translate(0 0)"><g class="aas"><g id="qy"><rect id="r`" class="xi" x="65.04" y="210.8" width="9.15" height="36.05"/></g></g></g></g></g></g></g><g id="ra" transform="translate(-54.478 -140.064)"><g id="rb" transform="translate(0)"><g class="a`n"><g id="rd"><g id="re" transform="translate(0 0)"><g class="acm"><g id="rg"><rect id="rh" class="xi" x="16.84" y="-9.86" width="61.5" height="186.6"/></g></g></g></g></g></g></g><g id="ri" transform="translate(-13.806 -85.793)"><g id="rj" transform="translate(0 0)"><g class="aan"><g id="rl"><g id="rm" transform="translate(0 0)"><g class="acr"><g id="ro"><rect id="rp" class="xi" x="57.53" y="44.43" width="23" height="125.02"/></g></g></g></g></g></g></g><g id="rq" transform="translate(-39.498 -121.577)"><g id="rr" transform="translate(0 0)"><g class="yd"><g id="rt"><g id="ru" transform="translate(0 0)"><g class="acu"><g id="rw"><rect id="rx" class="xi" x="31.73" y="8.52" width="35.95" height="102.55"/></g></g></g></g></g></g></g><g id="ry" transform="translate(-5.272 -90.7)"><g id="s`" transform="translate(0 0)"><g class="acp"><g id="sb"><g id="sc" transform="translate(0 0)"><g class="abe"><g id="se"><rect id="sf" class="xi" x="66.08" y="39.52" width="19.33" height="105.23"/></g></g></g></g></g></g></g><g id="sg" transform="translate(-24.704 -122.207)"><g id="sh" transform="translate(0 0)"><g class="aav"><g id="sj"><g id="sk" transform="translate(0 0)"><g class="xu"><g id="sm"><rect id="sn" class="xi" x="46.63" y="8.01" width="33.08" height="142.38"/></g></g></g></g></g></g></g><g id="so" transform="translate(-65.555 -114.815)"><g id="sp" transform="translate(0 0)"><g class="x`"><g id="sr"><g id="ss" transform="translate(0 0)"><g class="abs"><g id="su"><rect id="sv" class="xi" x="5.66" y="15.28" width="50.2" height="142.39"/></g></g></g></g></g></g></g><g id="sw" transform="translate(38.616 -127.969)"><g id="sx"><g class="yr"><g id="t`"><g id="ta" transform="translate(0 0)"><g class="ww"><g id="tc"><rect id="td" class="xi" x="109.9" y="2.25" width="21.01" height="278.13"/></g></g></g></g></g></g></g><g id="te" transform="translate(23.724 -126.147)"><g id="tf" transform="translate(0 0)"><g class="acb"><g id="th"><g id="ti" transform="translate(0 0)"><g class="aaa"><g id="tk"><rect id="tl" class="xi" x="95.02" y="4.07" width="32.21" height="245.37"/></g></g></g></g></g></g></g><g id="tm" transform="translate(30.55 36.929)"><g id="tn"><g class="aag"><g id="tp"><g id="tq" transform="translate(0 0)"><g class="a`e"><g id="ts"><rect id="tt" class="xi" x="101.91" y="167.15" width="17.27" height="78.27"/></g></g></g></g></g></g></g><g id="tu" transform="translate(35.164 54.589)"><g id="tv"><g class="yk"><g id="tx"><g id="ty" transform="translate(0 0)"><g class="a`h"><g id="ua"><rect id="ub" class="xi" x="106.53" y="184.69" width="14.72" height="56.74"/></g></g></g></g></g></g></g><g id="uc" transform="translate(-5.195 -118.272)"><g id="ud" transform="translate(0 0)"><g class="ac`"><g id="uf"><g id="ug" transform="translate(0 0)"><g class="yp"><g id="ui"><rect id="uj" class="xi" x="66.04" y="11.83" width="31.87" height="74.27"/></g></g></g></g></g></g></g><g id="uk" transform="translate(28.079 -151.719)"><g id="ul"><g class="abn"><g id="un"><g id="uo" transform="translate(0 0)"><g class="act"><g id="uq"><rect id="ur" class="xi" x="99.43" y="-21.62" width="26.52" height="103.23"/></g></g></g></g></g></g></g><g id="us" transform="translate(8.899 -127.795)"><g id="ut" transform="translate(0 0)"><g class="yu"><g id="uv"><g id="uw" transform="translate(0 0)"><g class="abk"><g id="uy"><rect id="v`" class="xi" x="80.14" y="2.31" width="17.2" height="72.86"/></g></g></g></g></g></g></g><g id="va" transform="translate(-2.697 -130.193)"><g id="vb" transform="translate(0 0)"><g class="aco"><g id="vd"><g id="ve" transform="translate(0 0)"><g class="xn"><g id="vg"><rect id="vh" class="xi" x="68.56" y="-.09" width="17.24" height="36.18"/></g></g></g></g></g></g></g><g id="vi" transform="translate(2.71 -144.979)"><g id="vj" transform="translate(0 0)"><g class="a`i"><g id="vl"><g id="vm" transform="translate(0 0)"><g class="aad"><g id="vo"><rect id="vp" class="xi" x="73.95" y="-14.88" width="27.37" height="83.02"/></g></g></g></g></g></g></g><g id="vq" transform="translate(28.985 -97.041)"><g id="vr"><g class="xw"><g id="vt"><g id="vu" transform="translate(0 0)"><g class="acn"><g id="vw"><rect id="vx" class="xi" x="100.24" y="33.19" width="8.6" height="23.42"/></g></g></g></g></g></g></g><g id="vy" transform="translate(-5.133 -69.08)"><g id="w`"><g class="aa`"><g id="wb"><g id="wc" transform="translate(0 0)"><g class="xm"><g id="we"><rect id="wf" class="xi" x="66.14" y="61.13" width="59.63" height="284.8"/></g></g></g></g></g></g></g><g id="wg" transform="translate(12.476 -120.843)"><g id="wh" transform="translate(0 0)"><g class="abf"><g id="wj"><g id="wk" transform="translate(0 0)"><g class="abg"><g id="wm"><rect id="wn" class="xi" x="83.75" y="9.36" width="60.65" height="282.13"/></g></g></g></g></g></g></g><g id="wo" transform="translate(-42.886 -116.527)"><g id="wp" transform="translate(0 0)"><g class="xe"><g id="wr"><g id="ws" transform="translate(0 0)"><g class="ab`"><g id="wu"><rect id="wv" class="xi" x="28.2" y="13.5" width="91.42" height="335.6"/></g></g></g></g></g></g></g></g></g></g></g></g></g></g></svg>