<?xml version="1.0" encoding="UTF-8"?><svg id="a" xmlns="http://www.w3.org/2000/svg" viewBox="0 0 62.3 61.53"><defs><style>.b{fill:#fff;fill-rule:evenodd;}.c{fill:#009a74;}</style></defs><circle class="c" cx="30.98" cy="30.72" r="28.65"/><g><path class="b" d="M47.36,26.85c-1.81-7.57-8.34-12.73-16.21-12.83-1.04,.05-2.16,.13-3.18,.32-11.04,2.23-16.72,14.41-11.38,24.22,.19,.28,.19,.52,.15,.83-.78,2.55-1.49,5.16-2.18,7.73q-.11,.45,.31,.33c2.69-.74,5.36-1.43,8.05-2.09,.24-.08,.4-.08,.6,.03,3.45,1.76,7.1,2.25,10.92,1.54,9.12-1.76,15.1-11.06,12.92-20.08Zm-13.87,17.42c-.8,.14-1.54,.22-1.92,.17-2.94,0-5.3-.66-7.5-1.92-.31-.19-.55-.24-.85-.13-1.5,.36-2.97,.76-4.46,1.15-.31,.09-.34,.03-.27-.27,.39-1.38,.76-2.78,1.2-4.2,.1-.38,.07-.69-.17-.98-3.01-4.92-2.88-10.94,.49-15.5,3.51-4.69,8.33-6.64,14.06-5.4,5.65,1.18,9.27,4.85,10.56,10.49,1.83,7.71-3.37,15.35-11.14,16.61Z"/><path class="b" d="M35.5,38.56c-.58,.06-1.17-.05-1.73-.22-3.8-1.12-6.68-3.45-9-6.61-.86-1.17-1.68-2.43-1.93-3.92-.35-1.72,.19-3.26,1.5-4.43,.43-.42,1.7-.61,2.22-.33,.17,.14,.26,.27,.37,.43,.47,1.18,.97,2.28,1.45,3.4,.07,.26,.06,.47-.07,.71-.25,.52-.64,.93-1.02,1.38-.32,.27-.32,.57-.1,.9,1.36,2.28,3.2,3.92,5.68,4.88,.36,.14,.63,.09,.85-.19,.43-.5,.85-1.05,1.24-1.57,.24-.32,.57-.38,.92-.22,.82,.36,1.62,.74,2.4,1.1,.22,.11,.37,.19,.56,.28,.82,.41,.82,.46,.73,1.34-.11,1.73-1.44,2.61-2.96,3.05-.41,.09-.74,.09-1.11,.02Z"/></g></svg>